<svg version="1.1" id="Layer_1" xmlns="http://www.w3.org/2000/svg" xmlns:xlink="http://www.w3.org/1999/xlink" x="0px" y="0px" width="100%" viewBox="0 0 2768 798" enable-background="new 0 0 2768 798" xml:space="preserve">

<path fill="#FFFFFF" opacity="1.000000" stroke="none" d="
M2769.000000,622.531372 
	C2739.199219,623.000000 2709.398193,623.000000 2679.000000,623.000000 
	C2679.000000,620.561951 2679.000000,618.457886 2679.000000,616.353821 
	C2679.000000,452.365570 2679.101318,288.377167 2678.853760,124.389267 
	C2678.826904,106.662369 2671.066162,94.943222 2655.087158,90.796227 
	C2639.824707,86.835205 2624.636719,87.089500 2612.690674,99.879669 
	C2606.630127,106.368523 2604.063965,114.475899 2604.045166,123.209267 
	C2603.947754,168.539154 2604.000000,213.869339 2604.000000,259.199432 
	C2604.000000,378.357574 2604.000000,497.515686 2604.000000,616.673828 
	C2604.000000,618.627930 2604.000000,620.582092 2604.000000,622.764160 
	C2573.927246,622.764160 2544.324707,622.764160 2514.000000,622.764160 
	C2514.000000,620.702698 2514.000000,618.614990 2514.000000,616.527283 
	C2514.000000,454.538879 2513.796631,292.549988 2514.197998,130.562607 
	C2514.265625,103.215752 2500.653320,86.855911 2472.221436,89.170135 
	C2466.241211,89.656914 2459.869385,91.290565 2454.669678,94.180275 
	C2443.489990,100.393501 2439.103271,111.325691 2439.093018,123.529549 
	C2438.954590,287.684357 2439.000000,451.839294 2439.000000,615.994202 
	C2439.000000,618.133423 2439.000000,620.272644 2439.000000,622.700684 
	C2408.936279,622.700684 2379.216064,622.700684 2349.000000,622.700684 
	C2349.000000,620.775879 2349.000000,618.991394 2349.000000,617.206909 
	C2349.000000,454.051941 2348.832031,290.896606 2349.173340,127.742355 
	C2349.227295,101.989265 2352.950439,76.607635 2365.838623,53.420292 
	C2376.507080,34.226837 2392.093018,20.648617 2412.057861,12.120871 
	C2426.865723,5.796028 2442.449463,2.324661 2458.805176,1.381647 
	C2470.354248,1.000000 2481.708252,1.000000 2493.726074,1.381647 
	C2517.587402,3.083253 2539.331787,9.059685 2558.933594,21.902199 
	C2574.181396,11.792655 2594.484619,4.576153 2611.705811,2.953556 
	C2615.828613,2.565108 2619.903320,1.664866 2624.000000,1.000010 
	C2635.354248,1.000000 2646.708252,1.000000 2658.725830,1.381447 
	C2669.822754,3.506042 2680.461182,4.467238 2690.652344,7.135956 
	C2723.880615,15.837246 2746.977783,36.270691 2758.976807,68.673096 
	C2765.275879,85.682831 2768.250488,103.328117 2768.046143,121.497864 
	C2768.029297,122.994812 2768.666748,124.499123 2769.000000,126.000000 
	C2769.000000,291.354218 2769.000000,456.708466 2769.000000,622.531372 
z" data-index="1" style="opacity: 1;"></path>
<path fill="#FFFFFF" opacity="1.000000" stroke="none" d="
M1285.531372,0.999999 
	C1290.096802,1.665025 1294.180176,2.430809 1298.292603,2.978777 
	C1325.573364,6.613906 1349.746094,16.650568 1368.190308,37.802582 
	C1379.186646,50.413174 1385.898193,65.388084 1389.965332,81.538612 
	C1393.631714,96.097832 1395.112549,110.873703 1395.078613,125.927094 
	C1394.907471,202.078476 1395.000000,278.230469 1395.000000,354.382233 
	C1395.000000,356.362640 1395.000000,358.343079 1395.000000,360.835999 
	C1340.023193,360.835999 1285.306885,360.835999 1230.249146,360.835999 
	C1230.150757,362.936646 1230.009766,364.545380 1230.009399,366.154144 
	C1229.997681,412.145142 1229.840332,458.137115 1230.113525,504.126495 
	C1230.181030,515.484375 1232.159668,526.706238 1240.827881,535.279541 
	C1246.513428,540.903015 1253.609863,543.770508 1261.521362,543.909607 
	C1267.954224,544.022705 1274.532715,544.038330 1280.814819,542.860352 
	C1294.479248,540.298157 1302.278564,530.142578 1304.905884,516.963013 
	C1305.798584,512.484802 1305.939453,507.802856 1305.954834,503.212433 
	C1306.046509,476.060333 1306.000000,448.907776 1306.000000,421.377869 
	C1335.568481,421.377869 1364.953613,421.377869 1395.000000,421.377869 
	C1395.000000,423.035645 1395.000000,424.797485 1395.000000,426.559326 
	C1395.000000,455.387024 1395.070068,484.214935 1394.978149,513.042358 
	C1394.902588,536.779053 1390.231812,559.570740 1378.727661,580.450867 
	C1367.503052,600.823669 1350.492554,614.927124 1328.624268,622.960754 
	C1313.831665,628.394958 1298.607544,631.893066 1282.754028,631.986938 
	C1270.392090,632.060120 1257.940552,632.945435 1245.685669,631.796387 
	C1221.691284,629.546814 1198.904297,622.931946 1179.887573,607.244019 
	C1164.007080,594.143372 1153.840454,577.090576 1148.029175,557.432922 
	C1142.100708,537.378723 1140.935669,516.790161 1140.951782,496.004364 
	C1141.048828,370.862244 1140.794312,245.719345 1141.191284,120.578423 
	C1141.261963,98.295395 1145.705933,76.451317 1155.962280,56.232502 
	C1167.406006,33.673119 1185.630859,18.836380 1209.036377,10.077992 
	C1222.418701,5.070320 1236.316162,2.353890 1250.805176,1.381605 
	C1262.354248,1.000000 1273.708496,1.000000 1285.531372,0.999999 
M1254.167969,90.346939 
	C1248.397827,92.595390 1243.013916,95.217003 1238.874023,100.229889 
	C1231.969482,108.590096 1230.242798,118.648804 1230.163208,128.684921 
	C1229.793823,175.168411 1230.000000,221.656464 1230.000000,268.142883 
	C1230.000000,269.717590 1230.000000,271.292267 1230.000000,272.729187 
	C1255.735962,272.729187 1280.668701,272.729187 1306.000000,272.729187 
	C1306.000000,270.667511 1306.000000,268.871674 1306.000000,267.075867 
	C1306.000000,221.589157 1306.028809,176.102386 1305.955933,130.615799 
	C1305.948608,126.025452 1305.745117,121.358994 1304.913818,116.860710 
	C1302.426636,103.401382 1294.936279,93.394058 1281.391479,90.532791 
	C1272.925781,88.744446 1263.794800,90.105438 1254.167969,90.346939 
z" data-index="2" style="opacity: 1;"></path>
<path fill="#FFFFFF" opacity="1.000000" stroke="none" d="
M2190.531250,1.000000 
	C2195.264404,1.666159 2199.515137,2.441901 2203.795654,2.979846 
	C2224.377686,5.566431 2243.516846,12.235699 2260.078369,24.776300 
	C2278.499512,38.724785 2289.198975,57.923779 2295.021973,80.063263 
	C2299.611328,97.511787 2301.046631,115.262505 2301.036865,133.244659 
	C2300.967285,259.723480 2301.205078,386.203003 2300.814697,512.680664 
	C2300.742676,535.989807 2296.245850,558.841248 2284.703857,579.626770 
	C2273.643066,599.545898 2257.373291,613.591309 2236.167725,622.078674 
	C2220.674561,628.279846 2204.603516,630.833801 2188.033691,632.193115 
	C2164.642334,634.112000 2141.849365,632.043518 2119.504150,625.148010 
	C2085.798096,614.746399 2064.425293,592.038818 2054.026611,558.638550 
	C2049.527100,544.185974 2047.007080,529.394958 2047.005981,514.227783 
	C2046.995850,381.416656 2046.743164,248.604614 2047.208008,115.795105 
	C2047.305664,87.911339 2054.543945,61.326126 2072.578857,39.186039 
	C2085.846191,22.898884 2103.291016,12.111065 2123.795166,7.141927 
	C2134.222412,4.614967 2144.994141,3.510695 2155.805176,1.381646 
	C2167.354248,1.000000 2178.708252,1.000000 2190.531250,1.000000 
M2136.000000,467.500000 
	C2136.334229,483.916077 2135.889648,500.397888 2137.267334,516.725952 
	C2138.242432,528.287842 2145.152588,537.127136 2156.262207,541.591064 
	C2165.245361,545.200623 2174.891357,545.561401 2184.181396,543.693481 
	C2195.375977,541.442627 2204.606689,535.468079 2208.340820,523.979492 
	C2210.331055,517.855774 2211.840088,511.248352 2211.850342,504.856506 
	C2212.051270,379.247314 2212.098389,253.637451 2211.760742,128.028839 
	C2211.740234,120.324318 2209.520996,112.018127 2206.118408,105.072708 
	C2201.017578,94.660210 2190.955566,90.004128 2179.609131,89.096642 
	C2170.071533,88.333809 2160.387451,88.659386 2151.886963,93.751709 
	C2140.143799,100.786606 2136.133545,112.430832 2136.112061,125.155479 
	C2135.920166,238.936722 2136.000000,352.718445 2136.000000,467.500000 
z" data-index="3" style="opacity: 1;"></path>
<path fill="#FFFFFF" opacity="1.000000" stroke="none" d="
M1587.531372,0.999997 
	C1592.097412,1.665029 1596.181030,2.435992 1600.294678,2.977939 
	C1627.601440,6.575387 1651.767578,16.607212 1670.210815,37.808777 
	C1680.297852,49.404613 1686.848022,62.990219 1691.027344,77.785049 
	C1695.993042,95.363228 1697.309204,113.268669 1697.078613,131.455093 
	C1696.763794,156.283371 1697.000000,181.118622 1697.000000,205.950882 
	C1697.000000,207.758423 1697.000000,209.565964 1697.000000,211.685455 
	C1667.299927,211.685455 1637.912231,211.685455 1608.000000,211.685455 
	C1608.000000,209.808624 1608.000000,208.027969 1608.000000,206.247314 
	C1608.000000,178.748505 1608.209229,151.247253 1607.888428,123.752190 
	C1607.773560,113.915100 1604.811523,104.686089 1597.193237,97.750267 
	C1591.877686,92.910675 1585.392456,90.002312 1578.339233,89.298141 
	C1568.999512,88.365662 1559.581421,88.341103 1550.805786,92.658569 
	C1539.473511,98.233932 1533.802368,108.092346 1533.208496,119.982994 
	C1532.140137,141.375748 1531.930298,162.835495 1532.141724,184.259552 
	C1532.283325,198.592377 1538.504028,211.217300 1547.070679,222.329437 
	C1554.197388,231.573929 1561.728516,240.754044 1570.373535,248.524261 
	C1584.128784,260.887390 1598.601807,272.534241 1613.437378,283.590027 
	C1628.010132,294.449951 1642.304321,305.588837 1654.434692,319.095184 
	C1671.041748,337.586212 1684.276489,358.199890 1691.177734,382.443237 
	C1694.551025,394.293213 1697.049561,406.217560 1697.024170,418.617096 
	C1696.954468,452.782135 1697.626221,486.962952 1696.779419,521.107117 
	C1696.215454,543.851196 1690.309204,565.696777 1678.133545,585.223022 
	C1663.565308,608.586487 1641.541992,621.671265 1615.293091,627.841370 
	C1605.639038,630.110718 1595.607910,630.924805 1585.700195,631.917664 
	C1578.144043,632.674866 1570.477783,633.290283 1562.918823,632.883972 
	C1539.631226,631.632080 1516.782471,628.199585 1496.003296,616.511780 
	C1473.334106,603.760864 1458.817505,584.502258 1451.071655,559.939453 
	C1446.930054,546.806580 1444.004028,533.417969 1443.999634,519.544617 
	C1443.989258,486.954895 1443.996338,454.365143 1443.996338,421.386108 
	C1472.554932,421.386108 1501.943359,421.386108 1532.000000,421.386108 
	C1532.000000,423.028046 1532.000000,424.789246 1532.000000,426.550415 
	C1532.000000,451.882660 1531.807007,477.217377 1532.136597,502.545349 
	C1532.218384,508.826874 1533.594238,515.182312 1535.071777,521.336487 
	C1538.393921,535.174683 1548.603027,541.782532 1561.658203,543.745117 
	C1568.399048,544.758484 1575.583008,543.876221 1582.431152,542.899719 
	C1595.802246,540.992798 1604.971191,529.384094 1606.934692,516.876709 
	C1607.645996,512.344910 1607.932739,507.705597 1607.954468,503.113190 
	C1608.056763,481.447937 1607.505737,459.766876 1608.166260,438.121277 
	C1608.640869,422.566376 1603.308594,409.268768 1595.161011,396.744415 
	C1584.989380,381.108429 1571.936768,367.965881 1557.594971,356.241150 
	C1541.396484,342.998474 1524.302246,330.845032 1508.211426,317.478790 
	C1490.028076,302.374298 1474.652832,284.736328 1462.902100,263.980682 
	C1452.970703,246.438324 1447.377441,227.581528 1444.127930,207.905640 
	C1443.299072,202.886322 1443.073486,197.722687 1443.048340,192.623001 
	C1442.936890,170.124527 1442.625122,147.616989 1443.117554,125.128738 
	C1443.518921,106.796890 1445.771362,88.713638 1451.822510,71.123009 
	C1462.515625,40.038578 1483.312622,19.550056 1514.247925,9.018217 
	C1526.696289,4.780211 1539.465088,2.289595 1552.805176,1.381605 
	C1564.354248,1.000000 1575.708496,1.000000 1587.531372,0.999997 
z" data-index="4" style="opacity: 1;"></path>
<path fill="#FFFFFF" opacity="1.000000" stroke="none" d="
M1889.531372,1.000002 
	C1894.263428,1.666384 1898.518311,2.394053 1902.791748,2.988782 
	C1923.785400,5.910491 1943.512329,12.420927 1960.127197,25.854158 
	C1975.672607,38.422626 1986.074341,54.815002 1991.959229,73.998062 
	C1996.399780,88.473625 1998.894775,103.230972 1999.023682,118.405540 
	C1999.276489,148.166275 1999.667236,177.925827 1999.998047,207.685898 
	C2000.012451,208.980530 1999.999878,210.275452 1999.999878,211.768356 
	C1969.921631,211.768356 1940.321777,211.768356 1910.000000,211.768356 
	C1910.000000,210.034668 1910.000000,208.281296 1910.000000,206.527924 
	C1910.000000,178.866852 1910.206665,151.203400 1909.887573,123.545998 
	C1909.776001,113.883224 1906.784058,104.860657 1899.413818,97.949867 
	C1894.006348,92.879410 1887.317627,89.963684 1880.150024,89.269188 
	C1870.843994,88.367508 1861.397949,88.288857 1852.653931,92.774658 
	C1841.578613,98.456512 1836.111328,108.175911 1835.186646,119.929062 
	C1834.069336,134.129547 1834.054199,148.438522 1834.044189,162.700882 
	C1833.964844,275.677979 1833.912109,388.655334 1834.138916,501.632050 
	C1834.161011,512.655273 1835.459717,523.779907 1842.947388,533.072266 
	C1847.864380,539.174438 1854.588379,542.183105 1861.663208,543.615112 
	C1871.126221,545.530457 1880.877563,545.237671 1890.020874,541.424072 
	C1900.688477,536.974670 1906.575195,528.463013 1908.932373,517.405518 
	C1909.610474,514.224854 1909.946655,510.911285 1909.955444,507.657349 
	C1910.032471,479.010834 1910.000000,450.363983 1910.000000,421.358887 
	C1939.940063,421.358887 1969.658203,421.358887 2000.000000,421.358887 
	C2000.000000,423.078278 2000.000000,424.845245 2000.000000,426.612183 
	C2000.000000,452.273651 2000.447754,477.945557 1999.851807,503.593170 
	C1999.410889,522.559875 1998.097412,541.601440 1991.911743,559.789307 
	C1986.598145,575.413696 1978.954102,589.842407 1966.965088,601.450378 
	C1952.542358,615.414612 1935.103027,623.620544 1915.586792,628.123352 
	C1898.765869,632.004272 1881.772949,633.523987 1864.658325,632.880493 
	C1843.018311,632.067017 1821.661011,628.802002 1802.088623,618.909058 
	C1777.318115,606.388672 1761.246094,586.265869 1753.037231,559.817932 
	C1748.902588,546.496887 1746.079590,532.945190 1745.996338,518.919189 
	C1745.671631,464.164307 1745.159790,409.409882 1745.041748,354.654572 
	C1744.876221,277.837128 1744.710571,201.017349 1745.165771,124.202248 
	C1745.313965,99.208847 1749.582642,74.752327 1762.170166,52.486012 
	C1774.426758,30.805372 1792.902710,16.902523 1816.252319,9.010960 
	C1828.708740,4.800993 1841.468628,2.296833 1854.805176,1.381605 
	C1866.354248,1.000000 1877.708496,1.000000 1889.531372,1.000002 
z" data-index="5" style="opacity: 1;"></path>

<path fill="#FFFFFF" opacity="1.000000" stroke="none" d="
M539.468628,799.000000 
	C539.000000,796.856750 539.000000,794.713501 539.000000,792.128845 
	C591.040527,791.981628 641.059387,782.482422 689.035522,762.995789 
	C693.463623,767.771118 693.170166,769.637146 687.572449,771.742859 
	C663.536560,780.784241 639.040344,788.439209 613.728943,792.773987 
	C597.775879,795.506104 581.520264,796.472168 565.200195,798.615234 
	C556.645752,799.000000 548.291504,799.000000 539.468628,799.000000 
z" data-index="7"></path>

<path fill="#FFFFFF" opacity="1.000000" stroke="none" d="
M389.724670,221.771423 
	C381.098328,230.079132 371.891907,237.447174 364.574829,246.365356 
	C354.988007,258.049957 346.447388,270.672272 338.266022,283.411011 
	C327.566650,300.070282 320.405823,318.462738 315.123047,337.469482 
	C310.480347,354.173462 307.968719,371.228394 306.729767,388.635223 
	C305.228943,409.721863 307.800873,430.161713 311.793823,450.691010 
	C316.030823,472.474762 323.854797,492.908386 334.225708,512.364258 
	C338.886078,521.107117 344.760986,529.201477 350.056122,537.608154 
	C350.803741,538.795044 351.388123,540.084839 352.334076,541.865295 
	C319.024353,544.584229 286.319122,547.253845 253.449371,549.936890 
	C239.558899,523.123718 229.532867,495.122375 223.897598,465.495758 
	C220.420609,447.215973 217.754349,428.918823 217.976105,410.263611 
	C218.103256,399.567413 217.147476,388.783813 218.199341,378.190491 
	C219.811493,361.954468 221.896988,345.670532 225.285995,329.726715 
	C231.296783,301.448517 241.360596,274.455353 255.086075,248.981720 
	C265.232635,230.150330 276.504303,211.929718 290.765442,195.881638 
	C301.987793,183.253113 313.333344,170.625595 325.679382,159.131027 
	C341.838074,144.086746 359.926178,131.439850 379.099884,120.342522 
	C398.617249,109.046303 419.029419,99.880341 440.435303,92.879959 
	C459.033966,86.797600 478.016541,82.608147 497.426758,79.808655 
	C518.694824,76.741203 540.048401,76.055817 561.316162,77.226120 
	C598.510864,79.272835 634.413757,87.790588 668.819031,102.348312 
	C696.307556,113.979431 722.164734,128.650223 744.856873,147.871750 
	C761.556152,162.016983 776.647095,178.187149 791.555237,194.287888 
	C809.076965,213.211288 822.383301,235.222031 833.601685,258.345337 
	C845.844177,283.579590 855.425293,309.832825 859.984314,337.657318 
	C861.938354,349.582855 864.068604,361.552063 864.829285,373.582947 
	C865.865356,389.970032 865.847107,406.434601 865.893616,422.867065 
	C865.908325,428.054047 864.333862,433.231659 864.139465,438.437897 
	C864.004456,442.056152 862.116821,442.360779 859.327637,443.124359 
	C840.380005,448.311737 821.521790,453.824677 802.597961,459.100555 
	C791.362000,462.233063 780.058960,465.124939 768.223328,468.274841 
	C769.994019,460.293030 771.993469,452.872437 773.225891,445.326599 
	C774.806580,435.648682 775.887512,425.882812 776.953796,416.129669 
	C777.544617,410.725494 778.130981,405.252258 777.923462,399.840637 
	C776.725830,368.612579 771.407410,338.246613 758.819702,309.374908 
	C748.955444,286.749725 736.118225,266.110931 720.004211,247.371338 
	C702.671509,227.214661 682.437317,210.722229 659.630737,197.232071 
	C636.125671,183.328720 610.683655,174.530487 584.064392,169.151093 
	C563.994080,165.095139 543.483887,164.767746 523.236816,166.255478 
	C489.884796,168.706131 458.097992,177.920517 429.051910,194.726410 
	C415.424072,202.611420 402.970673,212.526337 389.724670,221.771423 
z" data-index="9"></path>
<path fill="#FFFFFF" opacity="1.000000" stroke="none" d="
M29.954433,521.974365 
	C28.332239,527.338257 30.632563,532.261658 35.878136,536.002258 
	C47.997787,544.644714 61.974442,548.468140 76.263390,550.850525 
	C90.295471,553.190125 104.489586,555.242126 118.677811,555.820679 
	C149.683044,557.084961 180.727356,557.610046 211.760452,557.869202 
	C224.951950,557.979370 238.161377,556.765076 251.351685,555.970215 
	C265.988739,555.088135 280.632050,554.213196 295.238251,552.940674 
	C311.416962,551.531128 327.556671,549.674500 343.713562,548.014038 
	C356.767334,546.672424 369.848724,545.553223 382.868439,543.937317 
	C399.736969,541.843689 416.552185,539.323303 433.398346,537.045532 
	C448.630859,534.985901 463.911072,533.247803 479.102844,530.926575 
	C496.829865,528.217834 514.478455,524.998169 532.170776,522.058899 
	C552.603394,518.664307 573.108887,515.668396 593.468933,511.886688 
	C616.341125,507.638367 639.129150,502.905426 661.875854,498.020294 
	C690.484558,491.876160 719.121582,485.805267 747.548828,478.890686 
	C777.994812,471.484985 808.354980,463.640045 838.486816,455.053864 
	C867.988525,446.647308 897.390869,437.750549 926.392517,427.776733 
	C948.330566,420.232117 969.882874,411.344849 991.016235,401.753662 
	C1006.827393,394.577942 1022.096497,385.965637 1036.823730,376.742462 
	C1044.589600,371.878937 1051.522461,365.019379 1057.318481,357.839569 
	C1065.126709,348.166870 1063.114868,341.259583 1053.109375,333.964966 
	C1037.071899,322.272675 1018.403076,316.998901 999.694702,312.206024 
	C983.480225,308.052032 966.911865,305.251404 950.455566,302.083130 
	C944.526428,300.941620 938.468079,300.471191 932.315552,298.892059 
	C933.578491,298.594910 934.840088,298.046387 936.104553,298.039642 
	C948.270081,297.974548 960.467896,297.436920 972.595154,298.120667 
	C996.281616,299.456055 1020.046448,301.079346 1042.862183,308.181824 
	C1056.048218,312.286652 1068.961182,317.923645 1077.555298,329.376740 
	C1086.408325,341.174988 1085.885254,354.251892 1080.174683,367.458679 
	C1074.555176,380.455139 1064.824463,390.317200 1054.144897,398.708191 
	C1040.738770,409.241577 1026.511353,418.968292 1011.720276,427.440063 
	C993.520691,437.864105 974.556885,447.021210 955.578308,455.996063 
	C940.899414,462.937592 925.900452,469.327576 910.670349,474.951355 
	C881.735046,485.635834 852.832764,496.575195 823.366760,505.615997 
	C784.265442,517.613159 744.865173,528.813904 705.168518,538.640442 
	C668.877869,547.623901 632.064941,554.536926 595.398438,561.947815 
	C573.527527,566.368225 551.541382,570.271912 529.520508,573.879761 
	C512.428589,576.680054 495.208710,578.707825 478.034637,580.996155 
	C460.199036,583.372620 442.364136,585.765381 424.500824,587.917664 
	C416.342865,588.900513 408.111572,589.260193 399.923889,590.014343 
	C386.191681,591.279297 372.472015,592.680847 358.738159,593.926880 
	C353.319305,594.418457 347.880890,594.751343 342.443909,594.973694 
	C332.348389,595.386597 322.248688,595.714844 312.148285,595.987976 
	C298.051056,596.369324 283.951569,596.665100 269.853149,597.002441 
	C256.087860,597.331665 242.323212,597.899597 228.557388,597.927368 
	C217.292755,597.950073 206.015137,597.549072 194.764359,596.944031 
	C180.289398,596.165588 165.734482,595.747192 151.395889,593.820251 
	C129.268982,590.846497 107.262077,586.918518 85.269226,583.028015 
	C67.874794,579.951050 51.223499,574.298645 35.704830,565.852966 
	C22.446768,558.637512 11.488870,549.182739 8.548698,533.145996 
	C6.826562,523.752869 9.264213,515.346924 14.075098,507.464508 
	C22.319122,493.957062 34.625412,484.767761 47.799709,476.708893 
	C71.380653,462.284119 96.612221,451.441528 122.882515,442.940155 
	C126.423271,441.794312 129.861328,440.332428 133.359985,439.052521 
	C133.628510,438.954315 134.001205,439.140808 135.449387,439.382599 
	C132.429321,441.215790 130.162018,442.738037 127.767319,444.022858 
	C104.626999,456.438171 81.940414,469.644897 61.084206,485.639557 
	C50.424767,493.814209 39.813766,502.368317 33.081665,514.481079 
	C31.835356,516.723450 31.014164,519.202209 29.954433,521.974365 
z" data-index="10"></path>
<path fill="#FFFFFF" opacity="1.000000" stroke="none" d="
M701.951050,684.005859 
	C675.814514,698.658264 648.554688,709.688171 619.772705,716.421570 
	C604.569214,719.978333 588.958923,722.062927 573.421265,723.842041 
	C560.651489,725.304199 547.690552,726.205505 534.863098,725.802673 
	C513.918579,725.144958 493.100769,722.888611 472.513641,718.359253 
	C444.860687,712.275391 418.451782,702.941833 393.331665,690.006531 
	C374.460541,680.289185 356.379150,669.168701 340.141785,655.458008 
	C327.782410,645.021912 315.950989,633.924255 304.345123,622.647034 
	C298.433502,616.902832 293.536072,610.114868 287.937714,603.512817 
	C295.635132,602.970276 302.507324,602.353577 309.393311,602.027344 
	C325.250397,601.276062 341.135193,600.977966 356.969513,599.913147 
	C373.672485,598.789856 390.326843,596.952637 407.013702,595.562134 
	C408.214569,595.462036 409.636230,596.265259 410.738159,596.982117 
	C430.917999,610.109863 452.236053,620.917053 475.572052,627.078491 
	C488.119781,630.391541 500.918457,633.098267 513.772949,634.805481 
	C525.841248,636.408264 538.161011,637.217834 550.318970,636.818787 
	C576.737915,635.951538 602.395935,630.539917 627.083984,620.960693 
	C649.419800,612.294067 670.317444,600.796143 688.632935,585.435181 
	C700.811584,575.221130 711.506348,563.212158 722.621094,551.769287 
	C726.477966,547.798584 729.540405,543.064392 733.107971,538.797852 
	C733.838928,537.923584 735.141113,537.354431 736.289062,537.026978 
	C760.011719,530.259521 783.785461,523.668762 807.472168,516.778320 
	C821.450500,512.712036 835.295837,508.188599 850.453674,503.481750 
	C846.191772,514.353455 842.790222,524.415283 838.377258,534.011963 
	C827.722046,557.183594 815.331787,579.440002 799.106018,599.215515 
	C788.554443,612.075500 777.646118,624.763245 765.801147,636.413391 
	C747.790833,654.127625 727.352234,668.903381 705.595276,681.793884 
	C704.473877,682.458252 703.410522,683.220642 701.951050,684.005859 
z" data-index="11"></path>
<path fill="#FFFFFF" opacity="1.000000" stroke="none" d="
M215.261688,314.419983 
	C212.987167,325.332825 210.722336,335.840515 208.874847,346.421051 
	C207.330215,355.267181 205.720901,364.162201 205.132858,373.100861 
	C204.284317,385.999451 203.431641,399.012726 204.224899,411.875702 
	C205.251160,428.516785 207.579117,445.103119 209.924942,461.630951 
	C212.930588,482.807709 219.175034,503.168304 226.993851,523.036743 
	C229.850510,530.295776 233.099121,537.401062 236.198364,544.563782 
	C236.832458,546.029236 237.598221,547.437805 238.468262,549.208191 
	C232.798355,552.364197 227.125092,550.737366 221.693481,550.674988 
	C220.776840,550.664429 219.567978,548.353760 219.035049,546.906616 
	C212.643509,529.550232 205.641937,512.372742 200.267776,494.702148 
	C196.119186,481.061249 193.692734,466.852173 191.185318,452.773773 
	C189.749771,444.713623 189.393036,436.421448 189.063339,428.213104 
	C188.497437,414.123627 187.873734,400.010254 188.110397,385.920990 
	C188.443970,366.061188 191.475800,346.467194 195.461624,327.014648 
	C199.912827,305.290680 206.483841,284.187561 215.184998,263.860138 
	C225.403046,239.989029 238.017517,217.410477 253.119339,196.146286 
	C266.852356,176.809448 282.505615,159.290863 299.585297,142.988327 
	C317.640961,125.754250 337.550323,110.935867 358.897461,97.953072 
	C384.507385,82.377777 411.518738,69.969742 440.397369,62.068691 
	C456.829010,57.573090 473.622467,54.305481 490.365234,51.065063 
	C512.203613,46.838436 534.399414,46.087101 556.510132,47.187454 
	C577.725281,48.243244 598.783569,50.903954 619.651001,55.633427 
	C649.048035,62.296059 677.083252,72.348724 703.823914,86.037041 
	C725.062744,96.909027 745.317627,109.499374 763.429565,125.096130 
	C777.079895,136.850830 790.671509,148.821274 803.044556,161.875473 
	C819.933716,179.694305 834.430603,199.541870 846.927002,220.741394 
	C860.278931,243.392349 871.127075,267.191193 879.074829,292.280243 
	C884.878662,310.601196 889.072021,329.249451 892.189148,348.250641 
	C896.070251,371.909241 896.088928,395.646667 895.955261,419.445282 
	C895.935059,423.044342 895.393433,426.649170 894.933838,430.230896 
	C894.821899,431.102753 894.259216,432.409515 893.598572,432.639557 
	C888.716003,434.339417 883.756165,435.817322 878.164551,437.570801 
	C878.575439,429.682587 879.135437,422.525146 879.275452,415.359497 
	C879.462341,405.791443 879.477173,396.213593 879.266479,386.646576 
	C879.139832,380.894653 878.837830,375.092133 877.929871,369.421997 
	C875.044189,351.402435 872.709656,333.229126 868.539001,315.496979 
	C863.018066,292.023804 854.082153,269.605591 842.974365,248.171585 
	C831.842102,226.690292 819.164307,206.103867 803.184265,187.866959 
	C791.723938,174.788040 779.937073,161.878723 767.231445,150.035736 
	C749.752869,133.743912 730.314514,119.833076 709.421265,108.122620 
	C688.069641,96.155243 666.047668,85.474571 642.406067,78.955887 
	C625.044373,74.168739 607.357605,70.367363 589.625671,67.185143 
	C578.190979,65.133034 566.429382,64.589249 554.783813,64.111458 
	C542.605652,63.611824 530.310608,63.116886 518.212280,64.218895 
	C502.134735,65.683365 485.931183,67.581367 470.270844,71.334114 
	C452.016418,75.708481 434.119934,81.802048 416.378906,88.034279 
	C395.866333,95.240082 376.955048,105.847511 358.777771,117.734314 
	C341.729645,128.882721 325.871918,141.461349 310.937805,155.379745 
	C286.749603,177.922867 266.746735,203.592072 249.911484,231.970947 
	C237.965714,252.107697 228.880417,273.456451 221.062317,295.410767 
	C218.888702,301.514557 217.305954,307.828705 215.261688,314.419983 
z" data-index="12"></path>
<path fill="#FFFFFF" opacity="1.000000" stroke="none" d="
M292.250916,652.750854 
	C284.983490,644.815979 277.740082,637.322632 271.012787,629.391602 
	C264.361847,621.550659 258.232147,613.267578 250.947403,603.999939 
	C256.237488,603.999939 260.523499,604.620483 264.545410,603.854492 
	C270.572571,602.706482 273.216492,605.796082 276.813507,609.961731 
	C288.804596,623.848633 300.835266,637.851440 314.203430,650.364746 
	C335.255554,670.070679 358.927063,686.372742 384.484894,699.942749 
	C410.645111,713.832397 438.200043,723.960510 466.909180,730.748047 
	C480.049500,733.854675 493.596863,735.720459 507.068176,736.826294 
	C524.369202,738.246338 541.839111,739.576843 559.130554,738.745667 
	C597.665405,736.893188 635.026672,728.545105 670.659973,713.592712 
	C697.505432,702.327881 723.090027,688.429321 745.889648,670.262573 
	C761.095581,658.146362 775.636963,644.982361 789.147217,631.003296 
	C808.055603,611.438782 823.649902,589.179688 836.940918,565.374329 
	C847.603699,546.276428 856.760437,526.486755 862.960266,505.502930 
	C864.696106,499.627777 867.544006,496.509949 873.296387,495.238770 
	C876.733154,494.479309 880.016785,493.027039 883.946655,492.471588 
	C854.516174,595.852295 792.651062,673.167664 695.833313,720.258972 
	C562.048584,785.330750 400.700409,759.805847 292.250916,652.750854 
z" data-index="13" style="opacity: 1;"></path>
<path fill="#FFFFFF" opacity="1.000000" stroke="none" d="
M701.619141,251.250870 
	C719.226196,261.399506 728.377075,276.498474 728.890625,296.270599 
	C729.471008,318.621338 714.811646,339.713562 692.872986,346.177063 
	C675.037903,351.431580 659.271912,348.404663 644.640686,337.203186 
	C624.686401,321.926453 620.780701,294.104767 630.782471,273.906342 
	C638.792297,257.730682 652.223572,248.403061 670.518616,245.849350 
	C681.544067,244.310349 691.447632,246.898834 701.619141,251.250870 
z" data-index="14"></path>
<path fill="#FFFFFF" opacity="1.000000" stroke="none" d="
M2401.568848,712.208862 
	C2388.129883,715.018372 2383.726318,720.373413 2381.829102,736.535706 
	C2380.538330,747.530334 2381.259766,758.120056 2384.321777,768.585022 
	C2386.906982,777.420959 2393.415527,780.782715 2401.126953,780.810852 
	C2408.427246,780.837524 2415.801270,779.669250 2423.017090,778.342407 
	C2429.739502,777.106201 2432.062744,777.820862 2433.601074,783.741272 
	C2435.803955,777.960144 2437.978027,772.563782 2439.925781,767.086853 
	C2446.670410,748.123108 2453.219482,729.088745 2460.131836,710.186768 
	C2461.501465,706.441650 2462.389160,701.699829 2467.786133,701.002258 
	C2474.221191,700.170654 2476.817383,701.902039 2479.097656,708.357239 
	C2487.912354,733.311523 2496.780273,758.246948 2505.609375,783.196106 
	C2506.754883,786.434143 2508.457520,790.137207 2503.819580,791.872620 
	C2498.762939,793.764587 2494.626221,791.696899 2492.970947,787.125854 
	C2490.649658,780.714172 2488.117676,774.365173 2486.143555,767.847595 
	C2485.273193,764.973694 2484.180420,763.846985 2481.117676,763.932129 
	C2473.624512,764.140625 2466.113037,764.213257 2458.626709,763.905212 
	C2455.187256,763.763733 2453.956055,765.425049 2453.017334,768.155029 
	C2450.799316,774.603516 2448.155273,780.928406 2446.346436,787.486206 
	C2445.232666,791.524963 2442.922852,792.047791 2439.445557,792.071106 
	C2435.909180,792.094788 2433.173096,791.515076 2432.812256,788.213135 
	C2427.477783,789.693604 2422.140381,792.159546 2416.673584,792.490417 
	C2404.664062,793.217041 2392.410156,795.062134 2381.385986,787.222534 
	C2374.661377,782.440430 2371.743408,775.713135 2370.148193,768.421570 
	C2366.843262,753.313782 2367.098145,738.079407 2371.038330,723.067810 
	C2374.316162,710.580688 2381.762939,702.957642 2395.832031,700.899963 
	C2406.248047,699.376526 2416.509277,699.520447 2426.608643,702.179810 
	C2428.686523,702.726868 2431.545898,705.682556 2431.547363,707.530029 
	C2431.549561,710.594177 2430.681641,714.577454 2425.554932,714.043701 
	C2417.715088,713.227478 2409.844727,712.703979 2401.568848,712.208862 
M2473.342529,752.000000 
	C2475.662354,752.000000 2477.981934,752.000000 2480.892334,752.000000 
	C2477.299316,741.512085 2473.822266,731.362305 2469.933594,720.011841 
	C2465.952148,731.445618 2462.450439,741.501343 2458.794434,752.000000 
	C2463.778809,752.000000 2468.085205,752.000000 2473.342529,752.000000 
z" data-index="15" style="opacity: 1;"></path>
<path fill="#FFFFFF" opacity="1.000000" stroke="none" d="
M2153.000000,721.004272 
	C2153.000000,742.821167 2153.006104,764.139038 2152.996094,785.456909 
	C2152.993408,791.228699 2147.339844,794.670410 2142.529297,791.563477 
	C2141.442383,790.861389 2141.071289,788.420227 2141.062500,786.775757 
	C2140.963135,768.456299 2141.000000,750.136047 2141.000000,731.816040 
	C2141.000000,730.198853 2141.000000,728.581665 2141.000000,726.964539 
	C2140.739258,726.882751 2140.478516,726.801025 2140.218018,726.719299 
	C2137.831299,731.768127 2135.363770,736.780640 2133.075928,741.873962 
	C2129.214600,750.470947 2125.504395,759.135742 2121.652832,767.737305 
	C2120.153564,771.085876 2118.000732,773.179749 2113.751709,773.138306 
	C2109.624023,773.097961 2107.751221,770.824402 2106.361572,767.737122 
	C2101.158691,756.177063 2096.099365,744.552551 2090.933350,732.975769 
	C2089.978516,730.836426 2088.778320,728.806763 2087.000000,725.403809 
	C2087.000000,746.234924 2087.002197,765.504150 2086.998535,784.773315 
	C2086.997314,791.499451 2083.418213,794.212952 2077.137207,791.762390 
	C2075.977051,791.309753 2075.099854,788.621887 2075.089355,786.959534 
	C2074.954834,765.309448 2075.000000,743.658142 2075.000000,722.007202 
	C2075.000000,717.677002 2075.279785,713.323547 2074.922363,709.023071 
	C2074.556641,704.625793 2077.166504,702.236877 2080.491699,701.395996 
	C2084.125732,700.476990 2088.713379,699.636230 2090.978271,704.190125 
	C2095.169189,712.616577 2099.072754,721.187744 2103.007812,729.739258 
	C2106.663330,737.684204 2110.203857,745.682129 2114.143555,754.430176 
	C2121.149170,738.425659 2127.792725,723.241333 2134.442871,708.059937 
	C2136.824219,702.623535 2141.665527,699.987122 2147.499756,701.039185 
	C2151.050049,701.679443 2152.924316,703.913147 2152.980713,707.514771 
	C2153.048828,711.843994 2152.999023,716.174988 2153.000000,721.004272 
z" data-index="16" style="opacity: 1;"></path>
<path fill="#FFFFFF" opacity="1.000000" stroke="none" d="
M2675.790527,782.707397 
	C2669.086426,790.495667 2660.779541,793.514709 2651.040283,792.994141 
	C2645.458984,792.695862 2639.825684,792.722900 2634.312744,791.929199 
	C2622.531250,790.233154 2614.916992,779.858704 2613.186035,769.046326 
	C2611.658936,759.505066 2610.919922,749.692627 2611.243652,740.047302 
	C2611.490234,732.688782 2613.217773,725.158691 2615.590332,718.145996 
	C2618.955811,708.197327 2628.121094,702.019165 2639.066406,700.727295 
	C2635.339600,698.438416 2634.568848,694.590393 2637.731445,691.878235 
	C2642.942139,687.409546 2648.268799,683.017578 2653.938232,679.170715 
	C2656.178223,677.651001 2659.530762,676.978394 2662.258789,677.224487 
	C2664.408203,677.418396 2667.448730,679.233826 2668.086182,681.038330 
	C2668.594482,682.477112 2666.523438,685.544189 2664.816162,686.916443 
	C2659.373779,691.291016 2653.566650,695.212158 2647.799805,699.381226 
	C2652.903076,700.088745 2658.070801,700.336365 2662.988037,701.576599 
	C2676.539307,704.994446 2681.586670,715.083069 2682.822998,726.531555 
	C2683.974609,737.193298 2684.278076,748.040039 2683.802979,758.754211 
	C2683.431152,767.129150 2681.913574,775.633484 2675.790527,782.707397 
M2668.148926,769.398804 
	C2672.133545,757.887329 2671.489746,745.911682 2670.746826,734.150452 
	C2670.075439,723.520447 2666.922607,713.564392 2653.633057,712.301941 
	C2641.763428,711.174377 2628.612549,712.993042 2625.764160,728.994446 
	C2623.770752,740.192444 2623.591064,751.239746 2625.327881,762.295593 
	C2626.002441,766.590210 2627.959473,770.970398 2630.353516,774.646362 
	C2634.860107,781.565796 2642.288330,780.991638 2649.488281,781.085022 
	C2658.043457,781.195862 2664.312744,778.058533 2668.148926,769.398804 
z" data-index="17" style="opacity: 1;"></path>
<path fill="#FFFFFF" opacity="1.000000" stroke="none" d="
M2713.000000,770.998474 
	C2712.999756,776.330750 2713.088623,781.165527 2712.974609,785.995605 
	C2712.853027,791.147766 2711.593506,791.935913 2705.697754,792.057129 
	C2701.307129,792.147400 2699.933594,790.185974 2699.949951,786.028015 
	C2700.050049,760.698303 2700.050293,735.367920 2699.949219,710.038208 
	C2699.932861,705.946106 2701.399658,702.766479 2704.957764,701.184387 
	C2708.954102,699.407349 2714.292236,701.289124 2716.489746,705.030579 
	C2724.075439,717.948303 2731.538086,730.938965 2738.974365,743.943787 
	C2743.399414,751.682312 2747.686768,759.499390 2753.000000,767.161560 
	C2753.000000,765.614502 2753.000000,764.067444 2753.000000,762.520386 
	C2753.000000,744.189453 2753.126709,725.856934 2752.909668,707.528625 
	C2752.856689,703.057129 2754.443848,701.111328 2758.774170,700.983093 
	C2763.170410,700.853149 2765.574219,702.825623 2765.983887,707.151489 
	C2766.062256,707.977478 2765.999512,708.816895 2765.999512,709.650146 
	C2766.000000,733.480408 2766.001953,757.310608 2765.995605,781.140869 
	C2765.995117,782.470581 2766.333740,783.993774 2765.810303,785.091064 
	C2764.598877,787.632202 2765.591797,791.993530 2760.943359,791.958618 
	C2756.346191,791.924133 2751.749268,793.140808 2748.585205,787.392029 
	C2737.221680,766.742615 2725.310791,746.394409 2713.000000,724.871826 
	C2713.000000,740.783630 2713.000000,755.641296 2713.000000,770.998474 
z" data-index="18"></path>
<path fill="#FFFFFF" opacity="1.000000" stroke="none" d="
M564.994751,345.186401 
	C568.447205,332.589813 575.480347,324.063812 588.280334,320.858887 
	C609.019104,315.666260 628.212769,330.100098 629.109802,350.374054 
	C629.832031,366.697815 618.988525,380.050262 605.651062,383.650208 
	C587.555786,388.534302 566.976562,376.919922 565.014648,358.126129 
	C564.583801,353.999207 564.972351,349.786774 564.994751,345.186401 
z" data-index="19"></path>
<path fill="#FFFFFF" opacity="1.000000" stroke="none" d="
M2268.000000,759.000000 
	C2268.000000,768.491211 2267.885986,777.484436 2268.047852,786.472778 
	C2268.128906,790.983521 2265.893555,792.105408 2261.866211,792.072144 
	C2258.046387,792.040527 2255.953125,790.932800 2255.964600,786.706238 
	C2256.035645,760.565369 2256.026611,734.424133 2255.970459,708.283142 
	C2255.962646,704.702148 2257.328857,702.213318 2260.749268,701.165649 
	C2265.259033,699.784302 2270.658691,701.725586 2272.897949,705.664307 
	C2280.051758,718.247742 2287.073486,730.906250 2294.177490,743.518188 
	C2298.460205,751.121887 2302.800537,758.692993 2308.000000,766.117065 
	C2308.000000,764.385742 2307.999756,762.654419 2307.999756,760.923096 
	C2308.000000,743.440186 2307.963867,725.957214 2308.020508,708.474487 
	C2308.039795,702.527161 2311.413574,699.719482 2316.876709,701.092468 
	C2319.347900,701.713501 2321.096924,702.890930 2321.079102,706.185791 
	C2320.936279,732.659119 2321.086670,759.134460 2320.833496,785.606140 
	C2320.812988,787.711182 2318.647705,791.369812 2317.115234,791.573853 
	C2313.392822,792.069580 2308.623779,793.932800 2305.863037,789.479187 
	C2301.064209,781.737976 2296.531494,773.828918 2292.001709,765.924561 
	C2284.177246,752.270996 2276.441162,738.567017 2268.000000,723.708984 
	C2268.000000,736.119690 2268.000000,747.309875 2268.000000,759.000000 
z" data-index="20" style="opacity: 1;"></path>
<path fill="#FFFFFF" opacity="1.000000" stroke="none" d="
M1845.250000,746.749878 
	C1850.980957,752.573608 1856.461670,758.147339 1863.114258,764.912781 
	C1863.114258,758.141785 1863.018311,752.799011 1863.151978,747.461975 
	C1863.226685,744.477966 1863.690186,741.378601 1867.576294,741.062378 
	C1871.166138,740.770142 1875.644897,740.152588 1875.852417,745.384155 
	C1876.228394,754.862183 1876.992920,764.507874 1871.939819,774.161682 
	C1874.346069,776.331177 1876.864746,778.747803 1879.541016,780.974792 
	C1882.360840,783.321167 1885.280029,785.639160 1882.622803,789.705872 
	C1880.815796,792.471252 1874.411987,792.952271 1871.266724,790.666870 
	C1869.802734,789.603149 1868.832031,787.753174 1867.280273,786.950012 
	C1865.890503,786.230652 1863.481323,785.675293 1862.427002,786.387512 
	C1849.310547,795.247620 1835.066406,794.758545 1820.851074,790.856567 
	C1810.311401,787.963623 1805.940674,779.355957 1805.055664,769.991943 
	C1803.887573,757.632629 1808.276611,748.144531 1820.160645,742.936340 
	C1820.865234,742.627502 1821.402710,741.937744 1822.161499,741.305847 
	C1816.552124,734.083252 1813.603882,726.520813 1815.793945,717.163513 
	C1818.175537,706.987244 1825.262207,702.041870 1833.656372,701.215393 
	C1840.142456,700.576782 1846.837280,701.366150 1853.369385,702.123169 
	C1857.974243,702.656799 1860.048218,705.762634 1858.886475,709.729431 
	C1857.808350,713.410522 1856.218018,716.127014 1851.038818,714.270874 
	C1847.154663,712.878906 1842.604248,713.111633 1838.344482,713.051575 
	C1829.868530,712.932007 1825.280273,720.105469 1829.011475,727.765503 
	C1830.491699,730.804138 1832.566284,733.649597 1834.808228,736.197754 
	C1837.993652,739.818237 1841.583252,743.083069 1845.250000,746.749878 
M1819.845947,773.389221 
	C1820.950317,774.796753 1821.801636,776.562073 1823.201294,777.551941 
	C1830.541870,782.742432 1848.798462,782.850342 1853.914795,777.216309 
	C1846.222290,768.142334 1838.614502,759.168274 1831.294434,750.533508 
	C1819.208496,756.253174 1816.370605,761.955078 1819.845947,773.389221 
z" data-index="21" style="opacity: 1;"></path>
<path fill="#FFFFFF" opacity="1.000000" stroke="none" d="
M1549.000000,745.000000 
	C1549.000000,734.171692 1548.985718,723.843323 1549.004639,713.515015 
	C1549.019409,705.496826 1552.462769,701.789490 1560.277100,702.052490 
	C1571.309692,702.423767 1582.422729,702.462463 1593.331177,703.918640 
	C1605.736206,705.574646 1612.780518,714.521301 1615.698853,725.821350 
	C1619.433960,740.284058 1619.518555,754.980713 1614.276367,769.398987 
	C1609.513550,782.498901 1599.434814,788.845459 1586.529297,790.826416 
	C1578.409668,792.072754 1570.038818,791.813049 1561.775879,791.959534 
	C1553.054810,792.114136 1549.008423,787.862427 1549.001953,778.983826 
	C1548.993896,767.822571 1549.000000,756.661255 1549.000000,745.000000 
M1574.195190,779.988586 
	C1576.292114,779.659058 1578.379761,779.136047 1580.487671,779.033386 
	C1589.673340,778.586243 1597.011230,774.978088 1600.840210,766.321655 
	C1606.142944,754.332825 1606.337036,742.066040 1602.279053,729.546814 
	C1600.094238,722.806274 1596.320190,717.382935 1589.462769,716.076233 
	C1580.563843,714.380493 1571.391113,714.121704 1562.000000,713.211792 
	C1562.000000,732.689209 1562.000000,750.669006 1562.000000,768.648804 
	C1562.000000,780.004395 1562.000000,780.004395 1574.195190,779.988586 
z" data-index="22" style="opacity: 1;"></path>
<path fill="#FFFFFF" opacity="1.000000" stroke="none" d="
M1767.035522,749.409363 
	C1767.115967,761.877808 1764.500488,773.009216 1755.660034,781.746765 
	C1750.161621,787.181213 1743.146484,790.119690 1735.564453,790.888245 
	C1727.521118,791.703613 1719.393799,791.831543 1711.298340,791.955017 
	C1702.500977,792.089233 1698.157471,788.100342 1698.070435,779.224854 
	C1697.859497,757.736694 1697.704468,736.238647 1698.160889,714.758118 
	C1698.324097,707.073425 1700.978271,701.172424 1711.656616,701.934570 
	C1720.723022,702.581665 1729.875610,702.198486 1738.908936,703.091553 
	C1754.877197,704.670227 1762.783569,715.145508 1765.883423,728.661072 
	C1767.154541,734.202759 1767.380737,739.992798 1767.924194,745.684937 
	C1768.024780,746.738220 1767.368408,747.863647 1767.035522,749.409363 
M1713.113403,779.603638 
	C1720.168091,779.352966 1727.343262,779.821838 1734.246704,778.666809 
	C1742.597534,777.269531 1748.896606,772.060242 1751.536621,763.830444 
	C1755.327515,752.012451 1755.489868,739.888550 1751.450562,728.111572 
	C1749.136963,721.365784 1744.126099,716.215271 1736.843750,715.201782 
	C1728.447754,714.033386 1719.884277,714.068542 1711.030151,713.560181 
	C1711.030151,735.502869 1711.019409,756.424561 1711.086304,777.345947 
	C1711.088135,777.921875 1711.922363,778.495239 1713.113403,779.603638 
z" data-index="23" style="opacity: 1;"></path>
<path fill="#FFFFFF" opacity="1.000000" stroke="none" d="
M2034.855957,700.999207 
	C2049.868164,704.102417 2054.153809,710.795654 2056.775635,724.211853 
	C2058.589844,733.494873 2059.041748,743.200806 2058.800781,752.684692 
	C2058.558594,762.215576 2057.397949,771.836792 2052.156006,780.380188 
	C2047.384399,788.156494 2039.850586,791.728699 2031.508911,792.744019 
	C2024.378906,793.611877 2016.912354,793.199280 2009.770874,792.151733 
	C1998.237183,790.459839 1991.200439,782.840759 1988.522705,771.880066 
	C1984.488281,755.366638 1984.255493,738.535522 1988.596069,722.097351 
	C1992.239136,708.301636 2002.932495,701.257751 2016.679810,700.137634 
	C2022.530884,699.660889 2028.502563,700.665894 2034.855957,700.999207 
M2024.333008,712.000183 
	C2023.002197,712.000305 2021.659302,711.883484 2020.342529,712.019592 
	C2011.567383,712.926758 2003.987915,715.013611 2000.979614,726.661194 
	C1997.617676,739.678406 1998.335083,752.800171 2000.477661,765.813293 
	C2001.715820,773.333740 2006.200195,778.947266 2014.143921,780.520691 
	C2017.505859,781.186646 2021.062012,780.968628 2024.530640,780.981812 
	C2035.465088,781.023376 2042.143921,774.991394 2044.078979,764.375549 
	C2046.102539,753.274353 2046.334351,742.158020 2044.862061,731.083191 
	C2043.993042,724.546875 2042.619751,717.551941 2035.621826,714.391724 
	C2032.449829,712.959229 2028.720947,712.760132 2024.333008,712.000183 
z" data-index="24" style="opacity: 1;"></path>
<path fill="#FFFFFF" opacity="1.000000" stroke="none" d="
M1478.539917,702.031860 
	C1483.178467,703.674255 1487.529785,704.962769 1491.505371,706.988342 
	C1497.698975,710.143738 1499.878662,715.907532 1499.965454,722.497803 
	C1500.061768,729.829224 1501.224243,737.570557 1495.946289,743.711548 
	C1493.051636,747.079407 1489.207153,749.630798 1485.506714,752.793152 
	C1491.072876,762.353088 1497.040771,772.343750 1502.704590,782.504089 
	C1504.206177,785.197632 1505.909546,788.694702 1502.328125,791.164062 
	C1498.736450,793.640686 1492.816284,792.052185 1490.825317,788.508240 
	C1484.843750,777.860840 1478.902344,767.190491 1472.834229,756.592590 
	C1472.214478,755.510315 1470.882812,754.181274 1469.816895,754.121521 
	C1465.045044,753.854187 1460.249756,754.005310 1455.000000,754.005310 
	C1455.000000,764.737244 1454.877075,775.018005 1455.057861,785.293396 
	C1455.135010,789.673950 1454.160400,792.268677 1449.041626,792.069885 
	C1443.077515,791.838257 1442.022949,791.141602 1442.014160,785.244751 
	C1441.979858,762.095764 1441.788940,738.943970 1442.104858,715.799255 
	C1442.229980,706.627136 1445.470581,701.108704 1456.108521,701.897095 
	C1463.396484,702.437134 1470.756470,702.005554 1478.539917,702.031860 
M1474.797852,741.678955 
	C1478.297119,739.838440 1482.809204,738.775696 1484.996582,735.927612 
	C1486.980225,733.344421 1486.762085,728.830811 1486.923096,725.142578 
	C1487.168579,719.519958 1484.409424,715.744690 1478.989014,715.111755 
	C1471.200562,714.202148 1463.322754,714.059875 1455.287109,713.578308 
	C1455.287109,723.543762 1455.287109,732.588928 1455.287109,741.950867 
	C1461.693481,741.950867 1467.817383,741.950867 1474.797852,741.678955 
z" data-index="25" style="opacity: 1;"></path>
<path fill="#FFFFFF" opacity="1.000000" stroke="none" d="
M1315.880127,712.000122 
	C1310.033813,713.106262 1304.327637,713.431702 1299.348267,715.503601 
	C1292.035400,718.546387 1290.214478,726.186707 1289.327026,732.921204 
	C1287.814209,744.401917 1287.700684,756.001953 1290.882202,767.485657 
	C1293.126953,775.588074 1298.983765,779.798523 1306.089478,780.608826 
	C1313.593140,781.464478 1321.411499,779.790649 1329.056885,778.912842 
	C1330.138672,778.788696 1331.824219,776.944275 1331.863525,775.847107 
	C1332.118164,768.736572 1331.994019,761.612366 1331.994019,753.999268 
	C1325.789185,753.999268 1320.003662,753.866028 1314.227417,754.042053 
	C1309.721802,754.179321 1309.037231,751.274536 1309.049316,747.930664 
	C1309.061523,744.542542 1309.946533,741.847107 1314.366455,741.947632 
	C1322.523071,742.133118 1330.687500,742.047180 1338.847900,741.979126 
	C1342.346313,741.950012 1344.039062,743.412231 1344.020874,747.012939 
	C1343.962036,758.671143 1344.363281,770.349915 1343.722412,781.973083 
	C1343.577148,784.608826 1340.430298,788.443787 1337.834839,789.350769 
	C1324.413452,794.040588 1310.555664,794.670959 1296.692139,791.224121 
	C1285.362915,788.407349 1279.599854,779.878662 1277.374268,769.407410 
	C1273.970947,753.395325 1273.911377,737.212402 1278.926147,721.353943 
	C1282.778564,709.171570 1291.251343,702.780884 1303.824341,700.903015 
	C1314.394775,699.324341 1324.727905,699.981262 1335.146118,701.895996 
	C1340.186890,702.822388 1340.337280,706.060852 1339.996704,709.921387 
	C1339.616821,714.226196 1336.494263,714.257568 1333.419067,713.964661 
	C1327.717163,713.421448 1322.035400,712.666809 1315.880127,712.000122 
z" data-index="26"></path>
<path fill="#FFFFFF" opacity="1.000000" stroke="none" d="
M2185.000000,746.999634 
	C2185.329590,754.583069 2185.316895,761.703491 2186.077148,768.740540 
	C2186.968262,776.989685 2190.010010,779.108765 2199.037109,780.782593 
	C2203.728271,781.652527 2208.843262,780.503967 2213.732910,779.961121 
	C2218.736328,779.405579 2221.587158,776.014709 2222.705322,771.447205 
	C2223.554443,767.978882 2223.921631,764.315491 2223.945557,760.735168 
	C2224.064941,742.913696 2224.081787,725.090332 2223.941406,707.269226 
	C2223.906982,702.926514 2225.210449,700.756592 2229.896240,700.943726 
	C2235.328857,701.160583 2236.966064,702.337524 2236.979736,707.379944 
	C2237.030029,726.034912 2237.277588,744.696411 2236.849609,763.341675 
	C2236.699463,769.888733 2236.033936,776.558044 2232.119385,782.545044 
	C2227.949463,788.922974 2221.488770,791.505798 2214.974121,792.683228 
	C2205.712402,794.357300 2196.140869,794.270813 2186.974854,790.958252 
	C2179.458984,788.242126 2173.185059,779.899170 2173.027588,771.874023 
	C2172.613770,750.791992 2172.303955,729.707825 2172.017822,708.623535 
	C2171.929932,702.142761 2175.796631,699.049072 2181.788818,701.240723 
	C2183.301025,701.793823 2184.824463,704.682739 2184.860596,706.527283 
	C2185.120850,719.847229 2184.999756,733.174683 2185.000000,746.999634 
z" data-index="27" style="opacity: 1;"></path>
<path fill="#FFFFFF" opacity="1.000000" stroke="none" d="
M1680.554810,791.978210 
	C1678.757812,789.854126 1677.071167,787.882324 1676.088135,785.606567 
	C1674.550171,782.046143 1673.512695,778.271423 1672.218018,774.603455 
	C1670.989014,771.121155 1669.702148,767.659302 1668.413452,764.113464 
	C1658.536865,764.113464 1648.733032,764.113464 1638.439209,764.113464 
	C1635.661133,771.827454 1632.804932,779.690002 1630.001099,787.571350 
	C1628.474854,791.861389 1624.803467,793.513855 1619.700928,791.803833 
	C1615.076660,790.253845 1616.504761,786.036926 1617.396606,783.478394 
	C1626.147461,758.373779 1635.209717,733.376892 1644.323120,708.400391 
	C1645.671753,704.704102 1647.564453,701.209229 1652.446411,700.965637 
	C1658.510132,700.663025 1660.803589,701.919617 1662.857910,707.673340 
	C1667.273926,720.040955 1671.569580,732.451416 1675.938599,744.835876 
	C1680.416626,757.528992 1684.861572,770.234314 1689.441650,782.890503 
	C1691.993652,789.942200 1690.149536,792.009583 1680.554810,791.978210 
M1646.070312,740.751770 
	C1645.010498,744.286743 1643.950684,747.821777 1642.780396,751.725037 
	C1650.068970,751.725037 1656.919922,751.725037 1664.455933,751.725037 
	C1660.836426,741.101624 1657.360229,730.898438 1653.682495,720.104187 
	C1651.073486,727.303223 1648.764282,733.674927 1646.070312,740.751770 
z" data-index="28" style="opacity: 1;"></path>
<path fill="#FFFFFF" opacity="1.000000" stroke="none" d="
M1409.082031,771.828430 
	C1409.765991,767.239990 1410.866089,763.067871 1410.915405,758.883484 
	C1411.117798,741.730042 1411.105713,724.571777 1410.930664,707.417786 
	C1410.883057,702.755859 1412.414917,700.847595 1417.246338,700.892883 
	C1422.035278,700.937744 1423.080688,703.192444 1423.053955,707.408569 
	C1422.931396,726.728882 1422.648560,746.059021 1423.124023,765.368408 
	C1423.439087,778.170044 1416.340454,790.400879 1402.203247,792.414062 
	C1391.605103,793.923279 1381.063477,794.768005 1371.222778,789.568604 
	C1364.624756,786.082397 1360.272949,780.402039 1360.079956,772.757812 
	C1359.518555,750.518066 1359.348267,728.268555 1358.985962,706.023499 
	C1358.927368,702.425415 1360.636475,700.965271 1364.140625,700.967773 
	C1367.966797,700.970459 1371.747803,701.034668 1371.947754,706.128479 
	C1372.156494,711.450317 1371.999390,716.786560 1371.999756,722.116516 
	C1372.000610,735.941101 1372.033203,749.765747 1371.990112,763.590149 
	C1371.952881,775.565002 1377.127075,780.828308 1389.340332,780.917297 
	C1393.549316,780.947998 1397.794922,780.194580 1401.969482,779.481079 
	C1405.930420,778.804016 1408.109497,776.059509 1409.082031,771.828430 
z" data-index="29"></path>
<path fill="#FFFFFF" opacity="1.000000" stroke="none" d="
M1214.000000,754.000000 
	C1214.000000,740.513977 1214.042725,727.527832 1213.984741,714.542053 
	C1213.947266,706.172729 1217.930176,701.676392 1226.407471,701.918457 
	C1237.885742,702.246094 1249.382324,702.122742 1260.867065,701.938354 
	C1265.332520,701.866760 1267.097778,703.471741 1267.100830,708.026184 
	C1267.103882,712.628723 1265.233032,714.133667 1260.814575,714.060608 
	C1249.706909,713.877014 1238.594238,713.999939 1227.244629,713.999939 
	C1227.244629,722.380798 1227.244629,730.312805 1227.244629,739.000000 
	C1234.245972,739.000000 1241.325928,739.000000 1248.405762,739.000000 
	C1251.069580,739.000000 1253.733276,738.991516 1256.397095,739.001709 
	C1262.848145,739.026367 1263.080688,739.386169 1263.044678,745.679199 
	C1263.022949,749.461243 1261.436523,751.065552 1257.660767,751.030579 
	C1247.684570,750.938110 1237.706909,750.999329 1227.031738,750.999329 
	C1227.031738,759.938660 1226.899048,768.689575 1227.229248,777.422974 
	C1227.263672,778.334839 1230.024170,779.853455 1231.544922,779.885010 
	C1242.029053,780.102722 1252.520874,780.073669 1263.008301,779.960632 
	C1266.740845,779.920349 1269.082886,780.856628 1269.038696,785.167358 
	C1268.987793,790.120300 1267.587891,791.947083 1262.852783,791.975159 
	C1250.699585,792.047241 1238.541504,792.192810 1226.393921,791.922546 
	C1219.746826,791.774719 1213.716675,788.872253 1213.955566,779.472107 
	C1214.166992,771.153076 1214.000000,762.824402 1214.000000,754.000000 
z" data-index="30"></path>
<path fill="#FFFFFF" opacity="1.000000" stroke="none" d="
M1200.000000,763.214478 
	C1199.251831,768.985352 1199.267578,774.546936 1197.588135,779.538025 
	C1194.569824,788.507690 1186.603760,792.152832 1178.098511,792.769958 
	C1167.325439,793.551575 1156.341187,793.984497 1145.821411,790.062195 
	C1141.162720,788.325195 1139.669922,785.552979 1141.198364,780.576843 
	C1142.643433,775.872437 1146.274536,776.754883 1149.694458,777.326538 
	C1156.734497,778.503296 1163.735229,779.949524 1170.804077,780.898254 
	C1173.132568,781.210754 1175.652710,780.481873 1178.028931,779.968323 
	C1182.790527,778.939270 1186.057007,775.950867 1186.906006,771.210449 
	C1188.185303,764.066711 1186.472534,759.841125 1180.924927,757.570312 
	C1174.500000,754.940308 1167.720825,753.185181 1161.130371,750.947388 
	C1154.877686,748.824280 1149.267822,746.078735 1145.388184,740.085815 
	C1135.585938,724.944336 1144.039307,704.147400 1161.545532,701.007202 
	C1171.564819,699.210022 1181.480835,699.668152 1191.343750,702.015076 
	C1196.103882,703.147766 1198.230469,706.073364 1196.835327,710.179871 
	C1195.527466,714.029785 1193.367798,715.577881 1188.553101,714.489868 
	C1179.896729,712.533875 1171.052612,710.405762 1162.045410,713.844238 
	C1157.776123,715.474121 1155.655151,718.509705 1155.146606,722.480591 
	C1154.595947,726.780945 1154.047852,731.904480 1158.846069,734.245605 
	C1165.064819,737.279724 1171.645264,739.613281 1178.173096,741.962036 
	C1185.524048,744.606934 1193.441772,746.377991 1197.465698,754.052063 
	C1198.839966,756.673035 1199.184814,759.833862 1200.000000,763.214478 
z" data-index="31"></path>
<path fill="#FFFFFF" opacity="1.000000" stroke="none" d="
M2558.499268,700.246460 
	C2561.957764,700.951172 2565.005615,701.408447 2568.022705,702.018738 
	C2571.368408,702.695496 2573.382812,704.724670 2572.933594,708.248352 
	C2572.504639,711.610779 2571.734863,714.726074 2566.903320,714.066711 
	C2560.085693,713.136414 2553.215088,712.341553 2546.347656,712.136230 
	C2542.876465,712.032471 2539.244141,712.992371 2535.890625,714.096130 
	C2526.981445,717.028076 2523.754150,724.674805 2523.355713,732.805237 
	C2522.793945,744.264832 2521.389404,755.945862 2525.003662,767.253113 
	C2527.855469,776.173279 2534.619385,781.321533 2543.976562,780.886353 
	C2550.790283,780.569519 2557.617676,779.525940 2564.324707,778.218384 
	C2571.632568,776.793579 2574.693115,778.694458 2573.863525,785.426575 
	C2573.676025,786.949402 2572.064453,789.105835 2570.662354,789.543884 
	C2557.603760,793.624268 2544.263916,794.730225 2530.905029,791.356567 
	C2519.222656,788.406250 2513.555908,779.197693 2511.478516,768.524353 
	C2508.342041,752.410034 2508.164307,735.984497 2513.136230,720.072693 
	C2516.615967,708.935059 2524.781738,702.487244 2536.337402,701.104004 
	C2543.521729,700.244019 2550.825195,700.378418 2558.499268,700.246460 
z" data-index="32" style="opacity: 1;"></path>
<path fill="#FFFFFF" opacity="1.000000" stroke="none" d="
M1976.486328,702.221802 
	C1980.640991,704.280518 1980.415405,707.534058 1979.589844,710.841675 
	C1978.749512,714.209229 1976.037598,714.259705 1973.285278,713.996399 
	C1966.428833,713.340454 1959.552979,711.974670 1952.724731,712.185364 
	C1945.160767,712.418640 1937.540405,714.261414 1933.730835,721.964172 
	C1931.896973,725.672058 1930.342896,729.938782 1930.227417,733.997070 
	C1929.881714,746.137817 1928.480591,758.537720 1933.197876,770.191040 
	C1935.945190,776.977722 1941.878906,780.734741 1949.022095,780.825562 
	C1956.360840,780.918884 1963.721924,779.668030 1971.063354,778.908936 
	C1973.800293,778.625916 1976.509277,778.070374 1979.010010,777.674133 
	C1983.641846,785.649048 1982.735229,788.273132 1974.863647,790.604248 
	C1964.557739,793.656311 1953.815552,794.105835 1943.442627,792.707764 
	C1929.375732,790.811707 1920.659302,781.598450 1918.427490,767.611633 
	C1915.901001,751.779846 1915.488159,735.823181 1920.371826,720.198975 
	C1923.902344,708.903931 1931.968750,703.068115 1943.294678,700.976501 
	C1954.331177,698.938293 1965.220215,700.023315 1976.486328,702.221802 
z" data-index="33" style="opacity: 1;"></path>
<path fill="#FFFFFF" opacity="1.000000" stroke="none" d="
M804.009644,661.089355 
	C811.197144,667.302551 811.294373,667.403442 804.789978,673.672302 
	C783.131592,694.546021 759.434937,712.817688 733.356934,727.798035 
	C721.094177,734.842407 708.175110,740.747559 695.528137,747.118713 
	C687.158691,751.335083 687.138550,751.295105 683.838440,742.053528 
	C686.836548,740.722412 689.939697,739.453247 692.948914,737.990906 
	C712.465820,728.506348 732.004150,718.996399 749.523865,706.041199 
	C761.739136,697.008423 773.666260,687.566406 785.426758,677.946045 
	C791.819885,672.716248 797.595886,666.731995 804.009644,661.089355 
z" data-index="34" style="opacity: 1;"></path>
<path fill="#FFFFFF" opacity="1.000000" stroke="none" d="
M293.204102,116.280472 
	C308.812500,101.690948 325.801086,89.453888 343.822174,78.845070 
	C358.810852,70.021408 374.580261,62.520954 390.039886,54.503929 
	C392.178833,53.394707 394.525238,52.685528 397.305817,51.580429 
	C398.547485,54.377289 399.685883,56.941544 401.099213,60.125107 
	C355.737366,79.277405 315.661438,106.082008 279.725891,141.740097 
	C278.849640,140.348679 278.139374,138.872025 277.103577,137.677597 
	C276.134796,136.560440 274.820862,135.742584 273.035583,134.283676 
	C280.028778,128.051025 286.489319,122.293091 293.204102,116.280472 
z" data-index="35"></path>
<path fill="#FFFFFF" opacity="1.000000" stroke="none" d="
M812.764587,137.263870 
	C847.141663,171.736526 872.843384,211.487671 891.561523,256.142334 
	C889.698730,257.093475 888.439392,257.815826 887.115417,258.388733 
	C885.944763,258.895294 884.702148,259.235474 882.765076,259.897278 
	C863.940063,214.516617 836.591125,174.619125 802.104797,139.564667 
	C804.262329,137.342819 806.334534,135.208878 808.739319,132.732437 
	C810.093140,134.265915 811.306030,135.639725 812.764587,137.263870 
z" data-index="36"></path>
<path fill="#FFFFFF" opacity="1.000000" stroke="none" d="
M501.048553,767.999878 
	C515.477173,768.916382 529.445068,769.832703 543.720459,770.769226 
	C543.720459,773.429077 543.720459,776.483215 543.720459,779.676147 
	C493.265411,779.501953 444.682251,770.733459 397.712402,751.141602 
	C398.452423,749.422058 399.491669,747.730347 399.897888,745.898193 
	C400.549591,742.958862 401.729248,742.691650 404.476685,743.701172 
	C414.369659,747.335815 424.210510,751.307251 434.384796,753.938049 
	C451.808777,758.443420 469.454437,762.101807 487.040680,765.962280 
	C491.491028,766.939148 496.068665,767.336243 501.048553,767.999878 
z" data-index="37" style="opacity: 1;"></path>
<path fill="#FFFFFF" opacity="1.000000" stroke="none" d="
M190.960236,287.905426 
	C186.949463,303.539032 182.164902,318.614532 179.242218,334.042725 
	C176.477158,348.638916 175.531189,363.591858 174.050873,378.414398 
	C173.250229,386.431183 173.004990,394.503418 172.495346,402.775635 
	C169.918488,402.775635 167.311081,402.775635 164.020462,402.775635 
	C162.992203,351.787506 173.218521,303.062317 192.401657,255.887817 
	C195.509460,257.174530 198.188370,258.283661 200.909760,259.410400 
	C197.565216,268.890869 194.282486,278.196106 190.960236,287.905426 
z" data-index="38"></path>
<path fill="#FFFFFF" opacity="1.000000" stroke="none" d="
M654.167725,49.958061 
	C637.862000,45.948231 622.121155,41.083538 606.023071,38.243191 
	C590.087585,35.431511 573.793274,34.647430 557.653076,33.005493 
	C552.273132,32.458191 546.883362,32.008224 541.246460,31.490660 
	C541.246460,28.966747 541.246460,26.355366 541.246460,23.731127 
	C566.318359,20.754459 635.410339,28.811615 686.970886,51.806866 
	C685.788147,54.581009 684.609314,57.345913 683.450317,60.064339 
	C673.532410,56.603954 664.054199,53.296989 654.167725,49.958061 
z" data-index="39"></path>
<path fill="#FFFFFF" opacity="1.000000" stroke="none" d="
M824.263794,123.218597 
	C822.927612,124.741920 821.843384,126.007462 820.759155,127.272995 
	C820.059265,127.729706 819.359375,128.186417 818.659485,128.643127 
	C817.597046,126.751938 816.885620,124.516838 815.419739,123.020927 
	C791.638733,98.751801 764.723999,78.536270 735.039673,62.095844 
	C722.787170,55.309883 710.058594,49.375774 697.470093,43.210346 
	C694.802429,41.903805 693.087341,41.095608 694.732788,37.499531 
	C696.433167,33.783276 698.380615,35.245098 700.640869,36.260239 
	C725.826599,47.571716 750.169434,60.439770 772.396912,76.898972 
	C784.354370,85.753326 795.780151,95.340370 807.243591,104.840820 
	C812.584534,109.267090 817.501831,114.214996 822.474548,119.066429 
	C823.471985,120.039597 823.851379,121.646240 824.263794,123.218597 
z" data-index="40"></path>
<path fill="#FFFFFF" opacity="1.000000" stroke="none" d="
M827.785095,667.711487 
	C833.546021,660.941467 839.479614,654.735962 844.491272,647.858643 
	C855.610535,632.600159 867.020386,617.467957 876.896118,601.413513 
	C886.330017,586.077454 893.970886,569.638367 902.728088,553.062988 
	C902.213501,553.089539 902.913513,552.884155 903.504578,553.055237 
	C905.186890,553.542114 906.824646,554.182678 909.571472,555.145325 
	C902.137024,569.932800 895.571716,584.779846 887.427429,598.703369 
	C878.732788,613.567993 868.905518,627.816528 858.885742,641.843445 
	C852.235596,651.153198 844.468628,659.677795 837.026611,668.404602 
	C832.955505,673.178650 828.452576,677.581970 824.277832,682.271301 
	C822.163513,684.646240 820.594055,684.216309 818.545715,682.147095 
	C816.528625,680.109497 816.674438,678.637207 818.679932,676.768005 
	C821.722778,673.931946 824.594910,670.912659 827.785095,667.711487 
z" data-index="41"></path>
<path fill="#FFFFFF" opacity="1.000000" stroke="none" d="
M176.275879,244.368637 
	C186.845993,219.500793 199.374619,196.118103 214.970978,174.537354 
	C224.249390,161.698761 234.352951,149.438751 244.428864,137.201294 
	C249.996033,130.439804 256.271667,124.261642 262.647430,117.366875 
	C264.603302,119.216667 266.229248,120.754395 268.209015,122.626770 
	C231.432892,159.205399 202.699387,201.120132 182.412247,248.969131 
	C179.505615,248.676529 176.311142,249.019394 176.275879,244.368637 
z" data-index="42"></path>
<path fill="#FFFFFF" opacity="1.000000" stroke="none" d="
M372.689972,761.286743 
	C329.705658,741.407776 292.217102,714.397034 258.366516,680.857239 
	C260.429535,679.335510 262.276520,677.973145 264.593658,676.263916 
	C300.673950,712.376526 342.773499,741.145874 391.047028,761.361572 
	C390.190308,763.687195 389.389496,765.861023 388.406799,768.528625 
	C383.022858,766.073120 378.013550,763.788513 372.689972,761.286743 
z" data-index="43"></path>
<path fill="#FFFFFF" opacity="1.000000" stroke="none" d="
M2344.450684,791.968384 
	C2343.009766,790.078186 2341.143555,788.217346 2341.130127,786.343201 
	C2340.939453,759.846497 2341.036133,733.347961 2340.959229,706.850159 
	C2340.947998,703.011597 2342.099609,700.924622 2346.318848,700.951843 
	C2351.905762,700.987915 2353.952393,702.229858 2353.964355,706.810791 
	C2354.033691,733.308655 2354.046631,759.806946 2353.955322,786.304688 
	C2353.937744,791.419067 2352.734131,792.011658 2344.450684,791.968384 
z" data-index="44" style="opacity: 1;"></path>
<path fill="#FFFFFF" opacity="1.000000" stroke="none" d="
M1516.000000,775.983154 
	C1516.000000,753.321716 1515.987305,731.157104 1516.009033,708.992432 
	C1516.014404,703.473694 1517.954224,701.108948 1522.383301,701.000427 
	C1528.191772,700.858093 1528.993774,701.629028 1528.995850,707.551575 
	C1529.005249,733.549194 1528.927734,759.547241 1529.067505,785.544128 
	C1529.092285,790.171875 1527.662720,792.285400 1522.783936,792.066040 
	C1517.174805,791.813782 1516.109253,791.041443 1516.009888,785.479004 
	C1515.956177,782.480225 1516.000122,779.479736 1516.000000,775.983154 
z" data-index="45" style="opacity: 1;"></path>
<path fill="#FFFFFF" opacity="1.000000" stroke="none" d="
M2596.815674,787.368896 
	C2595.744385,793.428772 2591.359619,792.108337 2587.848145,791.913208 
	C2584.008301,791.699707 2583.974121,788.674622 2583.978516,785.693481 
	C2584.015869,759.752808 2584.048584,733.811829 2583.951172,707.871460 
	C2583.935303,703.657837 2584.520020,700.701172 2589.775635,700.942078 
	C2594.688721,701.167297 2596.943115,703.033203 2596.973389,708.122437 
	C2597.051758,721.258606 2597.006348,734.395630 2596.998291,747.532288 
	C2596.990234,760.668640 2596.967285,773.804932 2596.815674,787.368896 
z" data-index="46" style="opacity: 1;"></path>
<path fill="#FFFFFF" opacity="1.000000" stroke="none" d="
M518.244690,11.001022 
	C506.059692,12.335065 494.272217,13.193155 482.664124,15.127532 
	C469.532166,17.315844 456.371582,19.793316 443.569214,23.379387 
	C428.293671,27.658216 413.369873,33.201996 398.327667,38.298038 
	C394.430298,39.618397 394.069061,39.440090 391.960114,32.687523 
	C440.822266,12.685691 491.735016,3.430583 544.719238,3.128940 
	C544.719238,5.749722 544.719238,8.135489 544.719238,11.000270 
	C535.948364,11.000270 527.334900,11.000270 518.244690,11.001022 
z" data-index="47"></path>
<path fill="#FFFFFF" opacity="1.000000" stroke="none" d="
M145.178772,398.086365 
	C147.263901,398.023315 148.886505,398.023315 150.519684,398.023315 
	C151.030197,405.613770 151.278870,412.848602 152.047318,420.027832 
	C153.856583,436.931366 155.732422,453.831909 157.917740,470.690033 
	C160.517975,490.749023 166.523605,509.975250 172.976715,529.060486 
	C174.637787,533.973145 176.457001,538.835327 178.320847,543.675537 
	C180.810043,550.139709 180.859192,550.120789 173.614914,552.003540 
	C166.106827,533.078064 159.599625,513.803040 154.995117,493.904327 
	C150.651978,475.135162 146.906952,456.278778 145.969223,436.963593 
	C145.418045,425.610443 144.625076,414.269135 144.044098,402.917236 
	C143.963547,401.343567 144.477509,399.739410 145.178772,398.086365 
z" data-index="48"></path>
<path fill="#FFFFFF" opacity="1.000000" stroke="none" d="
M930.000122,356.973541 
	C927.905396,343.802856 926.271729,330.994751 923.612000,318.403381 
	C919.243408,297.722168 913.173462,277.506134 905.075806,257.931427 
	C903.347046,253.752274 904.313477,252.649323 910.338379,251.058350 
	C930.332642,299.849457 939.911133,350.649353 940.010071,403.673279 
	C937.659485,403.673279 935.607483,403.673279 933.567261,403.673279 
	C932.377136,388.245544 931.188660,372.839508 930.000122,356.973541 
z" data-index="49"></path>
<path fill="#FFFFFF" opacity="1.000000" stroke="none" d="
M269.250885,663.750732 
	C251.670334,645.437317 236.144852,625.978516 222.817825,604.888977 
	C231.463165,601.126709 235.632431,606.265442 239.511093,612.028625 
	C251.285645,629.524048 264.657715,645.695374 279.879272,660.295715 
	C282.433044,662.745239 282.562805,664.543945 279.819824,666.712830 
	C278.542511,667.722961 277.435730,668.948730 275.569946,670.726074 
	C273.461517,668.389526 271.481293,666.195068 269.250885,663.750732 
z" data-index="50"></path>
<path fill="#FFFFFF" opacity="1.000000" stroke="none" d="
M903.291199,484.305054 
	C906.219177,483.161896 908.822144,482.248779 913.065247,480.760315 
	C906.129883,503.097321 899.495544,524.464783 892.757935,546.164917 
	C888.758057,544.639099 885.954163,543.569519 883.529541,542.644653 
	C888.106445,528.527588 892.697388,514.521545 897.171265,500.478149 
	C898.596008,496.005798 899.642517,491.413666 901.021606,486.925385 
	C901.301208,486.015381 902.299255,485.326141 903.291199,484.305054 
z" data-index="51"></path>
<path fill="#FFFFFF" opacity="1.000000" stroke="none" d="
M920.000000,405.166443 
	C920.000000,409.296600 920.000061,412.944244 920.000000,416.591858 
	C919.999939,425.477875 919.972412,425.507111 910.122009,426.810211 
	C910.516968,418.421051 910.909668,410.079254 911.328308,401.188354 
	C913.877441,400.725159 916.632202,400.224609 919.747864,399.658478 
	C919.854004,401.773804 919.927002,403.228851 920.000000,405.166443 
z" data-index="52"></path>
<path fill="#FFFFFF" opacity="1.000000" stroke="none" d="
M197.012939,544.999329 
	C204.521149,541.527039 202.122513,549.354797 204.839462,551.594727 
	C201.521240,551.594727 198.203003,551.594727 194.423141,551.594727 
	C194.002823,550.393311 193.444397,548.797119 192.771378,546.873413 
	C194.148087,546.229614 195.382812,545.652283 197.012939,544.999329 
z" data-index="53"></path>

<path fill="#4C6971" opacity="1.000000" stroke="none" d="
M2136.000000,467.000000 
	C2136.000000,352.718445 2135.920166,238.936722 2136.112061,125.155479 
	C2136.133545,112.430832 2140.143799,100.786606 2151.886963,93.751709 
	C2160.387451,88.659386 2170.071533,88.333809 2179.609131,89.096642 
	C2190.955566,90.004128 2201.017578,94.660210 2206.118408,105.072708 
	C2209.520996,112.018127 2211.740234,120.324318 2211.760742,128.028839 
	C2212.098389,253.637451 2212.051270,379.247314 2211.850342,504.856506 
	C2211.840088,511.248352 2210.331055,517.855774 2208.340820,523.979492 
	C2204.606689,535.468079 2195.375977,541.442627 2184.181396,543.693481 
	C2174.891357,545.561401 2165.245361,545.200623 2156.262207,541.591064 
	C2145.152588,537.127136 2138.242432,528.287842 2137.267334,516.725952 
	C2135.889648,500.397888 2136.334229,483.916077 2136.000000,467.000000 
z" data-index="55" style="opacity: 1; visibility: hidden;"></path>

<path fill="#4C6971" opacity="1.000000" stroke="none" d="
M2668.056641,769.785645 
	C2664.312744,778.058533 2658.043457,781.195862 2649.488281,781.085022 
	C2642.288330,780.991638 2634.860107,781.565796 2630.353516,774.646362 
	C2627.959473,770.970398 2626.002441,766.590210 2625.327881,762.295593 
	C2623.591064,751.239746 2623.770752,740.192444 2625.764160,728.994446 
	C2628.612549,712.993042 2641.763428,711.174377 2653.633057,712.301941 
	C2666.922607,713.564392 2670.075439,723.520447 2670.746826,734.150452 
	C2671.489746,745.911682 2672.133545,757.887329 2668.056641,769.785645 
z" data-index="57" style="opacity: 1; visibility: hidden;"></path>

<path fill="#4C6971" opacity="1.000000" stroke="none" d="
M1573.727417,779.993408 
	C1562.000000,780.004395 1562.000000,780.004395 1562.000000,768.648804 
	C1562.000000,750.669006 1562.000000,732.689209 1562.000000,713.211792 
	C1571.391113,714.121704 1580.563843,714.380493 1589.462769,716.076233 
	C1596.320190,717.382935 1600.094238,722.806274 1602.279053,729.546814 
	C1606.337036,742.066040 1606.142944,754.332825 1600.840210,766.321655 
	C1597.011230,774.978088 1589.673340,778.586243 1580.487671,779.033386 
	C1578.379761,779.136047 1576.292114,779.659058 1573.727417,779.993408 
z" data-index="59" style="opacity: 1; visibility: hidden;"></path>

<path fill="#4C6971" opacity="1.000000" stroke="none" d="
M2024.788818,712.000854 
	C2028.720947,712.760132 2032.449829,712.959229 2035.621826,714.391724 
	C2042.619751,717.551941 2043.993042,724.546875 2044.862061,731.083191 
	C2046.334351,742.158020 2046.102539,753.274353 2044.078979,764.375549 
	C2042.143921,774.991394 2035.465088,781.023376 2024.530640,780.981812 
	C2021.062012,780.968628 2017.505859,781.186646 2014.143921,780.520691 
	C2006.200195,778.947266 2001.715820,773.333740 2000.477661,765.813293 
	C1998.335083,752.800171 1997.617676,739.678406 2000.979614,726.661194 
	C2003.987915,715.013611 2011.567383,712.926758 2020.342529,712.019592 
	C2021.659302,711.883484 2023.002197,712.000305 2024.788818,712.000854 
z" data-index="61" style="opacity: 1; visibility: hidden;"></path>

<path fill="#4C6971" opacity="1.000000" stroke="none" d="
M1646.262695,740.399170 
	C1648.764282,733.674927 1651.073486,727.303223 1653.682495,720.104187 
	C1657.360229,730.898438 1660.836426,741.101624 1664.455933,751.725037 
	C1656.919922,751.725037 1650.068970,751.725037 1642.780396,751.725037 
	C1643.950684,747.821777 1645.010498,744.286743 1646.262695,740.399170 
z" data-index="63" style="opacity: 1; visibility: hidden;"></path>
</svg>