<?xml version="1.0" encoding="UTF-8"?>
<svg id="Capa_2" data-name="Capa 2" xmlns="http://www.w3.org/2000/svg" viewBox="0 0 933.4 681.07">
  <defs>
    <style>
      .cls-1 {
        fill: none;
      }

      .cls-2 {
        fill: #fff;
      }
    </style>
  </defs>
  <g id="Capa_1-2" data-name="Capa 1">
    <g>
      <path class="cls-2" d="M750.73,377.54c-1.72,13.41-4.36,26.55-7.85,39.33l14.96-5.39c3-12.45,5.22-25.19,6.62-38.19-4.57,1.43-9.15,2.85-13.73,4.25ZM463.09,630.51c-94.79,0-179.1-45.71-232.03-116.25-5.39.1-10.77.16-16.11.18,54.88,78.08,145.66,129.2,248.14,129.2,140.16,0,258.42-95.63,292.94-225.06-5.07,1.85-10.14,3.65-15.2,5.39-35.92,119.36-146.85,206.54-277.74,206.54ZM463.09,37.41c-167.13,0-303.13,135.98-303.13,303.12,0,45.73,10.19,89.14,28.4,128.06,4.79-.21,9.55-.44,14.26-.69-18.9-38.46-29.51-81.69-29.51-127.37,0-159.9,130.09-289.98,289.98-289.98s289.98,130.09,289.98,289.98c0,10.28-.54,20.46-1.6,30.46,4.53-1.39,9.06-2.8,13.61-4.24.76-8.64,1.14-17.39,1.14-26.22,0-167.13-135.98-303.12-303.13-303.12ZM205.59,473.79c-4.78.25-9.58.5-14.38.71,5.82,11.76,12.37,23.08,19.61,33.91,5.29-.01,10.57-.05,15.87-.12-7.81-10.96-14.86-22.47-21.1-34.5Z"/>
      <path class="cls-2" d="M463.09,657.19c-41.61,0-82.06-7.94-120.23-23.62l-2.71,6.57c39.04,16.02,80.4,24.15,122.9,24.15h1.03v-7.09h-.99ZM687.58,563.87c-29.54,29.69-64,52.89-102.45,68.96l2.73,6.55c39.31-16.43,74.55-40.15,104.75-70.51l-5.03-5ZM170.92,462.87l-6.55,2.74c.52,1.26,1.06,2.5,1.59,3.75,2.57-.05,5.14-.12,7.67-.21-.93-2.08-1.84-4.18-2.72-6.28ZM779.75,340.53c0,7.27-.24,14.51-.74,21.71,2.42-.81,4.85-1.63,7.29-2.48.37-6.38.56-12.8.56-19.24v-.66l-7.1.66ZM771.49,412.81c-3.84,16.42-9,32.54-15.48,48.25l6.56,2.71c7.25-17.58,12.88-35.63,16.89-54.06-2.66,1.05-5.32,2.09-7.97,3.11ZM778.51,368.78c-1.09,12.46-2.91,24.78-5.45,36.95,2.62-1.03,5.24-2.07,7.87-3.12,2.32-11.96,3.98-24.08,4.92-36.31-2.44.85-4.88,1.67-7.33,2.48ZM170.42,219.39l-6.56-2.71c-16.28,39.28-24.53,80.96-24.53,123.9v1.27h7.1v-1.33c-.01-41.95,8.06-82.71,23.99-121.13ZM691.67,111.25l-5,5.03c29.65,29.56,52.82,64.05,68.85,102.53l6.55-2.73c-16.38-39.33-40.07-74.6-70.4-104.82ZM338.94,41.43c-39.34,16.35-74.64,40-104.89,70.28l5.03,5.01c29.59-29.62,64.11-52.76,102.6-68.74l-2.73-6.55ZM463.09,16.77h-.33l.33,7.09c41.84,0,82.5,8.04,120.83,23.86l2.71-6.55c-39.2-16.2-80.75-24.41-123.54-24.41ZM176.37,475.12c-2.59.1-5.16.17-7.73.22,5.18,11.32,10.98,22.28,17.4,32.85,2.8.06,5.62.1,8.42.12-6.68-10.67-12.71-21.74-18.09-33.19ZM198.36,514.39c-2.85-.01-5.7-.05-8.54-.1,12.86,20.17,27.95,38.9,45.17,55.99l5-5.04c-15.72-15.61-29.64-32.61-41.63-50.86Z"/>
      <path class="cls-2" d="M463.09,657.19c-41.61,0-82.06-7.94-120.23-23.62l-2.71,6.57c39.04,16.02,80.4,24.15,122.9,24.15h1.03v-7.09h-.99ZM687.58,563.87c-29.54,29.69-64,52.89-102.45,68.96l2.73,6.55c39.31-16.43,74.55-40.15,104.75-70.51l-5.03-5ZM170.92,462.87l-6.55,2.74c.52,1.26,1.06,2.5,1.59,3.75,2.57-.05,5.14-.12,7.67-.21-.93-2.08-1.84-4.18-2.72-6.28ZM779.75,340.53c0,7.27-.24,14.51-.74,21.71,2.42-.81,4.85-1.63,7.29-2.48.37-6.38.56-12.8.56-19.24v-.66l-7.1.66ZM771.49,412.81c-3.84,16.42-9,32.54-15.48,48.25l6.56,2.71c7.25-17.58,12.88-35.63,16.89-54.06-2.66,1.05-5.32,2.09-7.97,3.11ZM778.51,368.78c-1.09,12.46-2.91,24.78-5.45,36.95,2.62-1.03,5.24-2.07,7.87-3.12,2.32-11.96,3.98-24.08,4.92-36.31-2.44.85-4.88,1.67-7.33,2.48ZM170.42,219.39l-6.56-2.71c-16.28,39.28-24.53,80.96-24.53,123.9v1.27h7.1v-1.33c-.01-41.95,8.06-82.71,23.99-121.13ZM691.67,111.25l-5,5.03c29.65,29.56,52.82,64.05,68.85,102.53l6.55-2.73c-16.38-39.33-40.07-74.6-70.4-104.82ZM338.94,41.43c-39.34,16.35-74.64,40-104.89,70.28l5.03,5.01c29.59-29.62,64.11-52.76,102.6-68.74l-2.73-6.55ZM463.09,16.77h-.33l.33,7.09c41.84,0,82.5,8.04,120.83,23.86l2.71-6.55c-39.2-16.2-80.75-24.41-123.54-24.41ZM176.37,475.12c-2.59.1-5.16.17-7.73.22,5.18,11.32,10.98,22.28,17.4,32.85,2.8.06,5.62.1,8.42.12-6.68-10.67-12.71-21.74-18.09-33.19ZM198.36,514.39c-2.85-.01-5.7-.05-8.54-.1,12.86,20.17,27.95,38.9,45.17,55.99l5-5.04c-15.72-15.61-29.64-32.61-41.63-50.86Z"/>
      <path class="cls-2" d="M589.7,650.87l-.79.31c-40.3,16.32-82.59,24.6-125.7,24.6h-1.86s-.04,5.27-.04,5.27h1.9c43.79.01,86.74-8.4,127.69-24.98l.79-.33-1.99-4.88ZM224.91,576.45l-3.76,3.71c31.55,31.83,68.6,56.8,110.09,74.24l2.04-4.87c-40.85-17.16-77.32-41.75-108.37-73.08ZM772,470.6c-17.19,40.85-41.81,77.28-73.16,108.31l3.71,3.76c31.85-31.51,56.85-68.54,74.32-110.02l-4.87-2.05ZM152.44,466.35c-16.32-40.31-24.6-82.6-24.6-125.7v-2.71s-5.27-.04-5.27-.04v2.74c-.01,43.79,8.4,86.74,24.98,127.69l.43,1.05,4.88-2.02-.42-1.03ZM778.47,212.3l-.04-.08-2.45.98-2.24,1.51c16.32,40.31,24.6,82.6,24.6,125.7v2.14s5.27.05,5.27.05v-2.19c.01-43.78-8.4-86.74-25.15-128.11ZM224.06,97.99c-31.9,31.45-56.97,68.43-74.5,109.88l4.87,2.07c17.27-40.82,41.94-77.22,73.34-108.19l-3.71-3.76ZM595.49,26.88l-2.05,4.86c40.84,17.24,77.26,41.89,108.25,73.26l3.76-3.71c-31.49-31.86-68.48-56.9-109.96-74.41ZM462.97,0c-43.78,0-86.73,8.4-127.78,25.02l.83,2.51,1.26,2.34c40.3-16.32,82.59-24.6,125.69-24.6h2.43s.05-5.28.05-5.28h-2.48Z"/>
      <path class="cls-2" d="M637.87,455.15c-3.2.85-6.43,1.69-9.69,2.53-36.7,51.59-96.96,85.26-165.09,85.26-42.57,0-82.07-13.15-114.67-35.6-35.17,3.48-69.14,5.67-102.19,6.59,50.87,63.56,129.11,104.27,216.86,104.27,122.46,0,226.41-79.29,263.32-189.33-30.18,9.98-59.98,18.48-88.53,26.29ZM463.09,62.88c-153.35,0-277.65,124.3-277.65,277.65,0,45.61,11.01,88.67,30.5,126.64,29.04-1.69,56.84-3.99,83.93-6.92-24.64-33.53-39.19-74.93-39.19-119.72,0-111.78,90.62-202.4,202.4-202.4s202.4,90.62,202.4,202.4c0,19.66-2.8,38.67-8.04,56.63,26.52-6.57,53.65-14.03,81.17-22.28,1.4-11.26,2.11-22.72,2.11-34.35,0-153.35-124.31-277.65-277.66-277.65ZM655.37,403.92c-5.41,16.42-12.87,31.92-22.06,46.18.99-.25,1.98-.51,2.97-.77,30.96-8.48,61.85-17.39,92.4-27.61,3.99-13.03,7.03-26.47,9.06-40.25-27.25,8.13-54.71,15.65-82.37,22.45ZM304.15,465.85c-28.33,3.13-56.73,5.47-85.11,7.18,6.67,12.24,14.22,23.92,22.58,34.97,33.23-.82,66.37-2.9,99.4-6.02-13.77-10.43-26.17-22.57-36.87-36.13Z"/>
      <g>
        <circle class="cls-2" cx="510.01" cy="298.44" r="27.39"/>
        <circle class="cls-2" cx="578.97" cy="251.21" r="43.83"/>
      </g>
      <path class="cls-1" d="M924.97,321.87l-.17.24c-9.68,13.56-21.24,22.51-32.26,30.52-9.84,6.98-20.83,13.79-34.65,21.46-25.83,14.03-52.01,25.01-71.92,33.01-2.16.88-4.33,1.74-6.5,2.6.52-2.36,1-4.72,1.46-7.09-2.62,1.05-5.24,2.09-7.87,3.12-.5,2.37-1.03,4.72-1.57,7.08-5.15,1.98-10.31,3.9-15.45,5.78.63-2.36,1.23-4.72,1.8-7.1l-14.96,5.39c-.65,2.38-1.33,4.75-2.04,7.1-4.82,1.67-9.63,3.3-14.43,4.88.79-2.37,1.55-4.75,2.27-7.14-30.55,10.22-61.44,19.13-92.4,27.61-.99.27-1.98.52-2.97.77-1.66,2.57-3.37,5.1-5.12,7.58-41.36,10.62-86.65,20.4-141.54,30.58-48.33,8.41-94.21,14.75-138.22,19.08-2.51-1.73-4.98-3.5-7.41-5.35-33.02,3.12-66.17,5.2-99.4,6.02,1.51,1.99,3.04,3.98,4.62,5.92-5.09.16-10.14.27-15.18.34-1.49-1.97-2.95-3.95-4.37-5.97-5.29.07-10.57.11-15.87.12,1.35,2.03,2.73,4.04,4.13,6.03-1.82.01-3.64.01-5.45.01-3.71,0-7.43-.01-11.14-.06-1.34-2.01-2.63-4.04-3.9-6.08-2.8-.02-5.62-.06-8.42-.12l3.78,6.1c-3.9-.06-7.81-.13-11.66-.23-21.57-.75-49.92-2.15-78.41-6.45-15.51-2.46-28.06-5.06-39.52-8.19-12.39-3.52-26.68-8.01-40.29-17.19l-.19-.13c-6.85-5.03-14.34-11.65-18.04-22.67-1.9-5.94-2.22-12.35-.93-17.65l.15-.66c.19-.94.41-1.99.73-3.06l.08-.29,1.32-3.2c1.02-2.71,2.31-4.83,3.46-6.57,4.13-6.4,9.38-12.11,16-17.39,5.64-4.72,11.65-8.54,17.32-11.97,25.29-14.87,52.03-24.47,72.51-31.16l4.76,11.06c-23.79,12.93-45.05,24.84-64.16,39.79-5.5,4.45-9.71,8.22-13.19,11.81l-.1.1c-3.83,3.76-7.03,8.02-9,12.01-1.47,3.07-1.52,5.1-1.06,5.96l.07.14.07.16c.45.97,2.43,3.27,7.08,5.82,7.64,4.12,17.85,7.29,31.17,9.67,10.31,1.84,21.73,3.14,35.92,4.11,15.93.94,31.89,1.43,47.37,1.43,4.91,0,9.82-.05,14.71-.15.87,2.01,1.76,4,2.67,5.98,2.57-.05,5.15-.12,7.73-.22-.93-1.98-1.85-3.96-2.73-5.97,1.51-.04,3.01-.08,4.49-.13,3.43-.13,6.84-.28,10.22-.43.93,1.99,1.89,3.96,2.85,5.92,4.8-.22,9.59-.46,14.38-.71-1.01-1.95-2.02-3.91-2.97-5.9,4.47-.22,8.92-.47,13.33-.72,1.02,1.97,2.04,3.93,3.09,5.86,28.38-1.7,56.78-4.05,85.11-7.18-1.46-1.84-2.89-3.71-4.28-5.61,9.5-1.01,18.9-2.13,28.23-3.31,47.91-5.73,98.21-13.19,149.57-22.18,47.89-8.1,97.74-18.22,148.21-30.09,10.43-2.36,20.95-4.86,31.59-7.5-.65,2.27-1.35,4.52-2.09,6.75,27.66-6.8,55.12-14.32,82.37-22.45.34-2.19.63-4.39.89-6.59,4.27-1.27,8.55-2.57,12.84-3.89-.22,2.19-.47,4.37-.75,6.55,4.58-1.4,9.16-2.83,13.73-4.25.24-2.17.45-4.35.63-6.54,2.09-.65,4.17-1.32,6.26-1.98,2.55-.82,5.11-1.66,7.67-2.53-.13,2.19-.3,4.36-.51,6.54,2.45-.81,4.89-1.63,7.33-2.48.18-2.18.33-4.35.46-6.54,17.59-6.11,35.66-13.16,54.8-21.37,12.97-5.76,23.28-10.95,32.38-16.28,11.39-6.67,20.09-13.34,25.87-19.85,5.58-7.31,5.1-9.01.41-13.44-7.75-6.81-19.77-11.38-29.39-14.61-22.99-7.44-47.79-11.5-73.28-15.33l.69-12.01c7.15-.24,13.62-.35,19.78-.35,22.2,0,40.79,1.5,58.52,4.72,12.37,2.34,26.7,5.64,40.82,15.26l.23.14.21.18c.44.35.87.69,1.31,1.03,1.12.89,2.4,1.9,3.67,3.14l.14.14.15.17c.37.41.75.82,1.12,1.22,1.11,1.21,2.37,2.56,3.54,4.29,3.53,5.3,5.59,10.9,5.97,16.2,1.18,12.46-4.14,22.41-8.26,28.84Z"/>
      <path class="cls-2" d="M919.88,318.61c-8.99,12.59-19.94,21.17-30.9,29.14-11.06,7.84-22.47,14.64-34.04,21.06-23.18,12.59-47.14,23.01-71.24,32.68-.93.37-1.85.75-2.78,1.11-2.62,1.05-5.24,2.09-7.87,3.12-5.06,1.97-10.14,3.88-15.22,5.75l-14.96,5.39c-4.72,1.64-9.46,3.26-14.2,4.85-30.55,10.22-61.44,19.13-92.4,27.61-.99.27-1.98.52-2.97.77-48.86,12.78-98.24,23.03-147.76,32.23-47.9,8.31-96.08,15.1-144.53,19.66-33.02,3.12-66.17,5.2-99.4,6.02-4.98.13-9.96.23-14.93.29-5.29.07-10.57.11-15.87.12-5.45.01-10.9-.02-16.36-.1-2.8-.02-5.62-.06-8.42-.12-2.57-.05-5.15-.11-7.72-.17-25.83-.89-51.75-2.46-77.66-6.39-12.95-2.05-25.91-4.52-38.84-8.04-12.89-3.66-25.94-7.9-38.5-16.37-6.05-4.45-12.71-10.22-15.89-19.72-1.47-4.64-1.88-9.91-.77-14.38.25-1.14.47-2.3.79-3.37l1.22-3c.77-2.07,1.8-3.81,2.89-5.45,4.29-6.65,9.4-11.76,14.77-16.03,5.3-4.45,10.96-8.05,16.63-11.48,22.8-13.41,46.89-22.62,71.25-30.58-22.57,12.26-45.15,24.82-65,40.33-4.88,3.94-9.61,8.02-13.81,12.36-4.31,4.24-7.89,9.01-10.17,13.63-2.27,4.74-2.49,8.64-.99,11.47,1.37,2.98,5.09,6.09,9.65,8.59,9.36,5.05,21.17,8.2,33.02,10.32,11.94,2.13,24.24,3.35,36.58,4.19,21.56,1.27,43.32,1.74,65.15,1.23,2.57-.05,5.15-.12,7.73-.22.66-.01,1.32-.04,1.98-.06,4.29-.17,8.57-.35,12.86-.56,4.8-.22,9.59-.46,14.38-.71,4.48-.23,8.97-.48,13.45-.76,28.38-1.7,56.78-4.05,85.11-7.18,8.24-.91,16.48-1.89,24.71-2.92,50.1-5.98,100.07-13.51,149.84-22.23,49.84-8.42,99.38-18.58,148.56-30.16,9.39-2.13,18.75-4.34,28.11-6.62,27.66-6.8,55.12-14.32,82.37-22.45,4.34-1.29,8.66-2.6,12.99-3.93,4.58-1.4,9.16-2.83,13.73-4.25,2.91-.92,5.82-1.84,8.72-2.77,1.78-.57,3.55-1.15,5.33-1.74,2.45-.81,4.89-1.63,7.33-2.48,19.57-6.72,38.79-14.27,57.64-22.35,11.36-5.05,22.53-10.46,33.06-16.63,10.45-6.1,20.44-13.22,27.48-21.22,6.57-8.57,8-14.05-.18-21.75-8.02-7.09-19.86-11.95-31.54-15.87-23.76-7.7-49.07-11.79-74.31-15.58,25.54-.86,51.22-.41,77.01,4.28,12.89,2.44,25.92,5.73,38.5,14.31,1.53,1.26,3.11,2.36,4.58,3.81,1.41,1.61,2.92,3.03,4.18,4.89,2.49,3.73,4.63,8.37,4.97,13.33.98,10.14-3.18,18.6-7.33,25.08Z"/>
    </g>
  </g>
</svg>