<?xml version="1.0" encoding="UTF-8"?>
<svg id="Capa_2" data-name="Capa 2" xmlns="http://www.w3.org/2000/svg" viewBox="0 0 762.5 563.65">
  <defs>
    <style>
      .cls-1 {
        fill: #346db2;
      }

      .cls-2 {
        fill: #f2727f;
      }
    </style>
  </defs>
  <g id="Capa_1-2" data-name="Capa 1">
    <g>
      <path class="cls-1" d="M378.27,532.69c-138.32,0-250.87-112.54-250.87-250.86S239.94,30.96,378.27,30.96s250.87,112.54,250.87,250.86-112.54,250.86-250.87,250.86ZM378.27,41.84c-132.33,0-239.99,107.66-239.99,239.99s107.65,239.99,239.99,239.99,239.99-107.66,239.99-239.99S510.6,41.84,378.27,41.84Z"/>
      <path class="cls-1" d="M379.09,549.77h-.85c-35.18,0-69.4-6.73-101.71-19.99l2.23-5.43c31.59,12.97,65.07,19.55,99.51,19.55h.82v5.88ZM481.53,529.15l-2.26-5.42c31.82-13.3,60.35-32.5,84.79-57.07l4.17,4.14c-24.99,25.11-54.16,44.75-86.69,58.34ZM189.48,471.97c-25.13-24.96-44.79-54.1-58.43-86.63l5.42-2.27c13.34,31.81,32.57,60.32,57.16,84.73l-4.14,4.17ZM626.12,383.81l-5.43-2.24c13.04-31.65,19.65-65.21,19.65-99.75l5.87-.55v.55c0,35.31-6.76,69.62-20.09,101.99ZM116.2,282.92h-5.87v-1.05c0-35.54,6.83-70.03,20.3-102.54l5.43,2.25c-13.18,31.8-19.86,65.53-19.86,100.25v1.1ZM620.27,181.08c-13.26-31.83-32.43-60.38-56.98-84.85l4.14-4.16c25.09,25.01,44.69,54.2,58.25,86.75l-5.42,2.26ZM192.86,96.6l-4.15-4.15c25.04-25.06,54.25-44.63,86.81-58.16l2.25,5.42c-31.85,13.23-60.42,32.37-84.91,56.89ZM478.26,39.51c-31.72-13.11-65.36-19.75-100-19.75l-.27-5.87h.27c35.4,0,69.8,6.8,102.24,20.2l-2.24,5.43Z"/>
      <path class="cls-1" d="M379.09,549.77h-.85c-35.18,0-69.4-6.73-101.71-19.99l2.23-5.43c31.59,12.97,65.07,19.55,99.51,19.55h.82v5.88ZM481.53,529.15l-2.26-5.42c31.82-13.3,60.35-32.5,84.79-57.07l4.17,4.14c-24.99,25.11-54.16,44.75-86.69,58.34ZM189.48,471.97c-25.13-24.96-44.79-54.1-58.43-86.63l5.42-2.27c13.34,31.81,32.57,60.32,57.16,84.73l-4.14,4.17ZM626.12,383.81l-5.43-2.24c13.04-31.65,19.65-65.21,19.65-99.75l5.87-.55v.55c0,35.31-6.76,69.62-20.09,101.99ZM116.2,282.92h-5.87v-1.05c0-35.54,6.83-70.03,20.3-102.54l5.43,2.25c-13.18,31.8-19.86,65.53-19.86,100.25v1.1ZM620.27,181.08c-13.26-31.83-32.43-60.38-56.98-84.85l4.14-4.16c25.09,25.01,44.69,54.2,58.25,86.75l-5.42,2.26ZM192.86,96.6l-4.15-4.15c25.04-25.06,54.25-44.63,86.81-58.16l2.25,5.42c-31.85,13.23-60.42,32.37-84.91,56.89ZM478.26,39.51c-31.72-13.11-65.36-19.75-100-19.75l-.27-5.87h.27c35.4,0,69.8,6.8,102.24,20.2l-2.24,5.43Z"/>
      <path class="cls-1" d="M378.36,563.65h-1.56s.02-4.38.02-4.38h1.54c35.68,0,70.68-6.85,104.04-20.35l.64-.26,1.65,4.05-.65.26c-33.89,13.72-69.44,20.68-105.68,20.68ZM269.14,541.58c-34.34-14.43-64.99-35.1-91.11-61.44l3.11-3.08c25.7,25.93,55.88,46.28,89.7,60.48l-1.7,4.03ZM576.44,482.22l-3.07-3.11c25.95-25.68,46.32-55.84,60.55-89.64l4.03,1.7c-14.46,34.34-35.15,64.97-61.51,91.05ZM117.49,388.48l-.36-.87c-13.72-33.89-20.68-69.44-20.68-105.69v-2.27s4.38.03,4.38.03v2.24c-.01,35.68,6.84,70.68,20.35,104.04l.35.85-4.04,1.68ZM660.09,283.54l-4.37-.04v-1.77c0-35.67-6.85-70.68-20.35-104.03l1.85-1.25,2.03-.81.03.07c13.86,34.23,20.82,69.78,20.82,106.02v1.81ZM122.81,173.75l-4.03-1.7c14.52-34.31,35.26-64.91,61.66-90.95l3.07,3.11c-25.99,25.63-46.42,55.76-60.7,89.54ZM575.73,86.91c-25.65-25.97-55.79-46.37-89.59-60.63l1.7-4.03c34.33,14.49,64.94,35.21,91,61.59l-3.11,3.07ZM274.14,24.73l-1.04-1.94-.69-2.08C306.38,6.96,341.93,0,378.17,0h2.04s-.03,4.38-.03,4.38h-2.01c-35.67,0-70.67,6.84-104.03,20.35Z"/>
      <path class="cls-1" d="M378.27,52.04c-126.91,0-229.79,102.88-229.79,229.79s102.88,229.79,229.79,229.79,229.79-102.88,229.79-229.79S505.18,52.04,378.27,52.04ZM378.27,449.34c-92.51,0-167.51-75-167.51-167.51s75-167.51,167.51-167.51,167.51,75,167.51,167.51-75,167.51-167.51,167.51Z"/>
      <g>
        <circle class="cls-1" cx="417.1" cy="246.99" r="22.67"/>
        <circle class="cls-1" cx="474.16" cy="207.9" r="36.27"/>
      </g>
      <path class="cls-2" d="M655.43,209.31c21.14-.7,42.39-.34,63.73,3.54,10.67,2.02,21.44,4.75,31.86,11.84,1.26,1.04,2.57,1.95,3.78,3.15,1.17,1.33,2.42,2.51,3.46,4.05,2.05,3.08,3.83,6.92,4.11,11.03.82,8.39-2.63,15.39-6.07,20.76-7.44,10.43-16.5,17.53-25.57,24.12-9.15,6.49-18.6,12.12-28.17,17.43-19.19,10.42-39.01,19.04-58.96,27.05-39.88,16.15-80.89,28.31-122.01,39.58-41.24,10.88-82.93,19.55-124.75,27.31-83.79,14.56-168.7,23.44-254.26,21.27-21.38-.74-42.83-2.04-64.27-5.29-10.72-1.7-21.44-3.74-32.14-6.65-10.67-3.03-21.46-6.54-31.86-13.55-5-3.67-10.51-8.46-13.15-16.31-1.22-3.84-1.56-8.2-.64-11.9.2-.94.39-1.9.65-2.79l1.01-2.48c.64-1.71,1.49-3.15,2.38-4.52,3.55-5.5,7.79-9.73,12.23-13.27,4.39-3.68,9.06-6.66,13.75-9.5,18.87-11.1,38.81-18.72,58.98-25.31-18.69,10.15-37.37,20.54-53.8,33.39-4.03,3.26-7.94,6.64-11.42,10.23-3.57,3.51-6.53,7.47-8.42,11.28-1.89,3.93-2.06,7.15-.83,9.49,1.14,2.48,4.22,5.04,7.99,7.11,7.75,4.18,17.52,6.79,27.33,8.54,9.88,1.76,20.06,2.77,30.27,3.46,20.49,1.22,41.2,1.54,61.96.79,41.5-1.65,83.12-4.78,124.56-10.04,41.46-4.95,82.82-11.18,124.02-18.4,41.24-6.97,82.25-15.38,122.94-24.96,40.78-9.23,81.08-20.46,120.76-33.12,19.83-6.38,39.23-13.86,58.19-21.99,9.4-4.18,18.65-8.66,27.35-13.75,8.65-5.06,16.92-10.95,22.74-17.56,5.43-7.09,6.62-11.63-.16-18-6.64-5.87-16.44-9.89-26.09-13.13-19.67-6.37-40.61-9.76-61.5-12.9Z"/>
    </g>
  </g>
</svg>