<?xml version="1.0" encoding="UTF-8"?>
<svg id="Capa_2" data-name="Capa 2" xmlns="http://www.w3.org/2000/svg" viewBox="0 0 813 235.31">
  <defs>
    <style>
      .cls-1 {
        fill: #346db2;
      }

      .cls-2 {
        fill: #3763a0;
      }

      .cls-3 {
        fill: #f2727f;
      }
    </style>
  </defs>
  <g id="Capa_1-2" data-name="Capa 1">
    <g id="LOG_ESCOM" data-name="LOG ESCOM">
      <g>
        <g>
          <path class="cls-1" d="M344.88,218.93l-3.07-.95c-2.21-.68-3.1-1.32-3.46-1.73-.5-.58-.75-1.34-.75-2.33,0-1.37.35-2.38,1.06-3.09.7-.69,2.18-1.05,4.28-1.05,1.54,0,3.08.19,4.61.58.63.14.86.16,1,.16.58,0,1.02-.31,1.22-.86.17-.51.25-.88.25-1.17s-.1-.98-1.11-1.34c-1.7-.46-3.64-.69-5.76-.69-3.1,0-5.41.65-6.86,1.94-1.48,1.31-2.23,3.24-2.23,5.74,0,1.65.46,3.1,1.38,4.3.91,1.2,2.24,2.06,3.96,2.57l3.49,1.02c1.08.32,1.97.65,2.64,1.01.62.33,1.07.66,1.32,1,.26.35.43.66.5.92.08.28.12.66.12,1.14,0,.58-.05,1.08-.16,1.49-.1.39-.32.82-.65,1.31-.3.43-.84.77-1.6,1.03-.83.28-1.91.42-3.22.42-1.88,0-3.71-.33-5.44-.98-.73-.28-.95-.33-1.13-.33-.61,0-1.08.37-1.27.94-.21.47-.31.86-.31,1.19s.14.95,1.08,1.32c2.02.78,4.4,1.18,7.06,1.18,3.2,0,5.56-.68,7-2.02,1.46-1.35,2.2-3.29,2.2-5.76,0-1.94-.48-3.44-1.44-4.46-.93-.99-2.48-1.81-4.73-2.48Z"/>
          <path class="cls-1" d="M369.71,230.31h-10.01c-.48,0-.7-.12-.7-.82v-8.18h9.61c.85,0,1.39-.51,1.39-1.3v-.35c0-.82-.55-1.35-1.39-1.35h-9.61v-7.32c0-.68.23-.68.52-.68h10.18c.79,0,1.3-.46,1.3-1.17v-.67c0-.71-.51-1.17-1.3-1.17h-9.91c-1.38,0-2.34.28-2.93.85-.58.56-.86,1.44-.86,2.68v18.99c0,1.33.3,2.22.92,2.74.6.5,1.5.75,2.77.75h10.02c.78,0,1.29-.46,1.29-1.17v-.67c0-.71-.51-1.17-1.29-1.17Z"/>
          <path class="cls-1" d="M392.04,219.31h-7.87c-.71,0-1.17.44-1.17,1.13v.73c0,.69.46,1.13,1.17,1.13h5.83v6.78c0,.35-.06.46-.06.46,0,0-.08.09-.35.18-1.56.43-3.49.65-5.74.65-1.26,0-2.33-.2-3.18-.61-.85-.4-1.52-.89-1.98-1.45-.46-.57-.83-1.34-1.08-2.31-.27-1.03-.44-1.98-.51-2.84-.07-.88-.1-1.98-.1-3.25s.05-2.3.14-3.21c.09-.89.29-1.82.6-2.76.3-.91.7-1.66,1.19-2.24.48-.56,1.17-1.03,2.05-1.4.9-.37,2-.56,3.26-.56,2.03,0,3.81.16,5.3.48.85.17,1.17.19,1.34.19.56,0,.99-.3,1.16-.81.14-.47.2-.87.2-1.22,0-.33-.13-1.12-1.35-1.38-1.62-.36-3.64-.55-6.01-.55-4.23,0-7.24,1.14-8.95,3.38-1.69,2.21-2.51,5.69-2.51,10.62s.83,8.15,2.55,10.17c1.72,2.02,4.37,3.05,7.89,3.05s6.21-.44,8.09-1.35c.57-.3.94-.61,1.15-.96.25-.41.38-.94-.09-1.56v-9.49c.47-.93-.96-.99-.96-.99Z"/>
          <path class="cls-1" d="M415.73,206.31h-1.38c-.82,0-1.35.53-1.35,1.36v15.56c0,2.27-.26,3.89-.78,4.82-.68,1.23-2.44,1.86-5.24,1.86s-4.44-.68-5.26-2.03c-.33-.54-.72-1.8-.72-4.79v-15.42c0-.83-.5-1.36-1.28-1.36h-.36c-.75,0-1.36.61-1.36,1.36v14.5c0,3.5.28,5.78.85,6.96.72,1.52,1.82,2.6,3.29,3.22,1.39.59,3.16.88,5.25.88,4.26,0,7.13-1.26,8.52-3.74.47-.83.78-1.8.91-2.89.12-1.02.18-2.54.18-4.51v-14.43c0-.83-.5-1.36-1.27-1.36Z"/>
          <path class="cls-1" d="M434.51,221.65c3.08-1.05,4.64-3.4,4.64-6.98,0-1.64-.3-3.01-.88-4.09-.61-1.11-1.64-1.96-3.06-2.53-1.27-.5-3.32-.74-6.27-.74h-2.63s-2.3-.07-2.87.59c-.55.64-.82,1.57-1.44,2.83v21.17c.62.85,1.14,1.4,1.94,1.4h.81c.83,0,1.25-1.4,1.25-1.4v-9.6h3.14c.5,0,1.13-.02,1.87-.05l5.6,10.03c.48.87,1.06,1.05,1.47,1.05.83,0,1.18-.07,1.37-.13.5-.13.81-.54.81-1.07,0-.21-.06-.46-.4-1.14l-5.35-9.34ZM436.14,214.75c0,2.04-.69,3.32-2.11,3.91-1.06.43-2.59.64-4.56.64h-3.46v-8.25c0-.36.07-.56.13-.62.04-.05.22-.12.61-.12h2.56c2.96,0,4.22.29,4.77.53.68.29,1.18.69,1.53,1.23.34.53.53,1.46.53,2.69Z"/>
          <path class="cls-1" d="M446.64,206.31h-.85c-.83.45-1.36,1-1.79,1.85v23.75c.43.85.95,1.4,1.75,1.4h.85c.81,0,1.33-.55,1.4-1.4v-23.75c-.07-.85-.58-1.4-1.36-1.85Z"/>
          <path class="cls-1" d="M467.09,208c-1.54-.46-3.71-.69-6.44-.69h-2.93c-1.35,0-2.29.31-2.87.93-.57.61-.85,1.55-.85,2.85v18.53c0,1.26.28,2.17.85,2.77.58.61,1.5.91,2.8.91h2.79c2.83,0,4.97-.29,6.56-.88,2.51-.94,4.31-2.51,5.35-4.65,1.01-2.07,1.52-4.68,1.52-7.75,0-6.68-2.28-10.73-6.77-12.03ZM471.19,220c0,5.07-1.42,8.18-4.36,9.51-1.14.53-2.94.8-5.34.8h-2.8c-.48,0-.7-.12-.7-.8v-18.5c0-.7.26-.7.55-.7h2.87c2.72,0,4.67.28,5.79.83,2.64,1.25,3.97,4.24,3.97,8.87Z"/>
          <path class="cls-1" d="M487.24,209.24c-.22-.67-.48-1.14-.79-1.43-.35-.33-.82-.5-1.39-.5h-.38c-.62,0-1.13.16-1.51.47-.36.29-.64.76-.87,1.41l-7.91,21.98c-.23.7-.28.94-.28,1.12,0,.5.29.9.76,1.06.18.07.51.15,1.42.15.53,0,.83-.24,1-.44.16-.2.29-.47.42-.86l2.44-6.88h9.02l2.46,6.91c.15.38.29.64.44.83.16.2.47.44,1,.44.91,0,1.24-.08,1.4-.14.49-.16.78-.56.78-1.07,0-.18-.05-.42-.28-1.13l-7.72-21.91ZM488.16,221.31h-6.98c1.51-4.26,2.7-7.65,3.54-10.11l3.44,10.11Z"/>
          <path class="cls-1" d="M511.09,208c-1.54-.46-3.71-.69-6.44-.69h-2.93c-1.35,0-2.29.31-2.87.93-.57.61-.85,1.55-.85,2.85v18.53c0,1.26.28,2.17.85,2.77.58.61,1.5.91,2.8.91h2.79c2.83,0,4.97-.29,6.56-.88,2.51-.94,4.31-2.51,5.35-4.65,1.01-2.07,1.52-4.68,1.52-7.75,0-6.68-2.28-10.73-6.77-12.03ZM515.19,220c0,5.07-1.42,8.18-4.36,9.51-1.14.53-2.94.8-5.34.8h-2.8c-.48,0-.7-.12-.7-.8v-18.5c0-.7.26-.7.55-.7h2.87c2.72,0,4.67.28,5.79.83,2.64,1.25,3.97,4.24,3.97,8.87Z"/>
          <path class="cls-1" d="M551.56,230.57c-.65-.57-1.55-1.4-2.67-2.47.85-1.69,1.28-3.89,1.28-6.54,0-.8-.04-1.41-.12-1.9-.07-.36-.18-.62-.35-.82-.22-.25-.54-.38-.96-.38-.52,0-.92.04-1.22.14-.25.08-.84.36-.84,1.3,0,.03.02.28.05.78.03.44.05.86.05,1.27,0,1.39-.15,2.58-.45,3.53l-7.86-7.83c-.94-.97-1.63-1.81-2.03-2.51-.38-.65-.56-1.31-.56-2.02,0-1.02.24-1.79.73-2.38.45-.53,1.46-.82,2.91-.82,1,0,1.95.1,2.83.3l1.23.25s.09.01.14.01c.5,0,.9-.29,1.1-.78.2-.49.3-.91.3-1.29,0-.46-.25-1.06-1.39-1.34-1.07-.3-2.45-.45-4.1-.45-2.44,0-4.27.61-5.44,1.82-1.16,1.2-1.75,2.8-1.75,4.77,0,1.79.79,3.59,2.35,5.38-1.69.72-2.97,1.59-3.81,2.6-1.02,1.22-1.54,2.81-1.54,4.73,0,2.41.79,4.32,2.35,5.69,1.53,1.34,3.91,2.02,7.05,2.02,3.5,0,6.2-.92,8.05-2.75.48.49,1.07,1.06,1.77,1.71.56.46,1.06.69,1.54.69.53,0,.99-.11,1.37-.32.47-.21.74-.61.74-1.12,0-.4-.23-.8-.77-1.3ZM538.96,230.4c-2.08,0-3.61-.41-4.56-1.21-.93-.79-1.38-1.87-1.38-3.32,0-1.3.33-2.32.97-3.03.62-.69,1.62-1.28,2.98-1.78,1.67,1.74,4.22,4.25,7.6,7.47-1.21,1.24-3.09,1.87-5.61,1.87Z"/>
        </g>
        <g>
          <path class="cls-1" d="M579.83,229.28c-.14,0-.36.02-1.34.31-1.96.52-3.87.79-5.68.79-1.22,0-2.26-.19-3.11-.56-.84-.37-1.49-.83-1.95-1.38-.47-.56-.84-1.32-1.12-2.26-.29-.98-.48-1.95-.56-2.86-.08-.94-.12-2.08-.12-3.4s.04-2.43.12-3.33c.08-.87.26-1.8.56-2.78.27-.92.66-1.65,1.14-2.19.48-.53,1.18-.98,2.07-1.34.91-.37,2.04-.55,3.36-.55,1.96,0,3.57.15,4.8.44,1.06.23,1.18.23,1.27.23.58,0,1.02-.3,1.17-.75.2-.49.3-.91.3-1.29s-.18-1.08-1.39-1.38c-1.62-.36-3.62-.55-5.94-.55-4.12,0-7.03,1.13-8.66,3.37-1.6,2.2-2.37,5.67-2.37,10.62s.83,8.12,2.53,10.15c1.71,2.04,4.32,3.07,7.76,3.07,2.65,0,5.1-.37,7.26-1.09,1.08-.33,1.3-.92,1.3-1.37,0-.29-.06-.6-.18-.97-.31-.86-.95-.95-1.22-.95Z"/>
          <path class="cls-1" d="M602.35,210.38c-.54-1.05-1.29-1.88-2.24-2.48-.91-.57-1.91-.97-2.95-1.17-1.01-.2-2.25-.3-3.7-.3-1.64,0-3.07.19-4.26.56-1.22.38-2.36,1.06-3.39,2.03-1.04.98-1.84,2.41-2.36,4.25-.51,1.78-.77,4.01-.77,6.63s.2,4.81.6,6.56c.41,1.81,1.09,3.26,2,4.32.93,1.07,2.04,1.82,3.32,2.25,1.23.41,2.77.62,4.58.62s3.44-.21,4.7-.63c1.31-.44,2.46-1.2,3.4-2.26.94-1.06,1.64-2.51,2.06-4.33.41-1.75.62-3.96.62-6.56,0-2.19-.14-4.09-.42-5.63-.28-1.57-.68-2.87-1.19-3.86ZM593.25,230.37c-1.29,0-2.34-.13-3.14-.39-.75-.24-1.44-.71-2.04-1.39-.61-.68-1.07-1.72-1.36-3.09-.31-1.44-.46-3.33-.46-5.63,0-2.15.16-3.94.48-5.31.3-1.31.77-2.32,1.39-3.01.62-.68,1.33-1.16,2.1-1.41.82-.27,1.87-.41,3.14-.41,1.41,0,2.55.12,3.37.36.77.22,1.42.66,1.99,1.34.58.68.99,1.68,1.24,2.98.26,1.37.39,3.22.39,5.5s-.16,4.22-.48,5.67c-.3,1.37-.78,2.4-1.43,3.07-.66.68-1.36,1.13-2.1,1.35-.79.24-1.83.36-3.1.36Z"/>
          <path class="cls-1" d="M629.78,206.31h-.5c-.5,0-.94.13-1.31.4-.32.23-.58.5-.76.8-.15.25-.32.6-.52,1.05-3.01,6.83-5.07,11.56-6.15,14.12-1.18-2.77-3.27-7.52-6.24-14.15-.35-.81-.65-1.33-.93-1.64-.36-.38-.91-.58-1.62-.58h-.5c-.68,0-2.26.26-2.26,2.68v22.81c0,.92.55,1.51,1.4,1.51h.92c.87,0,1.44-.59,1.44-1.51,0-9.38-.02-16.29-.06-20.64,1.33,3.01,3.51,7.88,6.51,14.57.61,1.3,1.43,1.58,2.02,1.58h.38c.57,0,1.37-.27,1.98-1.59,3-6.65,5.17-11.48,6.54-14.57-.04,4.31-.06,11.22-.06,20.65,0,.92.55,1.51,1.4,1.51h-.79c.81,0,1.33-.56,1.33-1.42v-22.94c0-.92-.14-1.53-.44-1.94-.34-.46-.94-.7-1.78-.7Z"/>
          <path class="cls-1" d="M654.73,206.31h-.38c-.82,0-1.35.53-1.35,1.36v15.56c0,2.27-.26,3.89-.78,4.82-.68,1.23-2.44,1.86-5.24,1.86s-4.44-.68-5.26-2.03c-.33-.54-.72-1.8-.72-4.79v-15.42c0-.83-.5-1.36-1.28-1.36h-1.36c-.75,0-1.36.61-1.36,1.36v14.5c0,3.5.28,5.78.85,6.96.72,1.52,1.82,2.6,3.29,3.22,1.39.59,3.16.88,5.25.88,4.26,0,7.13-1.26,8.52-3.74.47-.83.78-1.8.91-2.89.12-1.02.18-2.54.18-4.51v-14.43c0-.83-.5-1.36-1.27-1.36Z"/>
          <path class="cls-1" d="M679.93,206.31h-.78c-.85.49-1.4,1.05-1.4,1.92,0,9.16.01,15.55.04,19.08-2.19-4.04-5.77-10.4-10.68-18.98-.32-.54-.62-.92-.89-1.15-.34-.28-.8-.42-1.36.12h-.53c-.7-.55-1.24-.34-1.6.08-.34.39-.73,1.72-.73,1.72v22.8s.75,1.4,1.55,1.4h.78c.83,0,1.36-.55,1.36-1.4,0-8.25-.02-14.7-.05-19.25,2.01,3.64,5.64,10.06,10.83,19.15.33.55.61.92.89,1.15.34.28.8.43,1.36,1.36h.56c1.21-.93,1.71-3,1.71-3v-23.11s-.29-1.4-1.07-1.89Z"/>
          <path class="cls-1" d="M689.53,206.31h-.85c-.83.45-1.36,1-.68,1.85v23.75c-.68.85-.16,1.4.65,1.4h.85c.81,0,1.33-.55,1.51-1.4v-23.75c-.18-.85-.69-1.4-1.47-1.85Z"/>
          <path class="cls-1" d="M712.86,229.28c-.14,0-.36.02-1.34.31-1.96.52-3.87.79-5.68.79-1.22,0-2.26-.19-3.11-.56-.84-.37-1.49-.83-1.95-1.38-.47-.56-.84-1.32-1.12-2.26-.29-.98-.48-1.95-.56-2.86-.08-.94-.12-2.08-.12-3.4s.04-2.43.12-3.33c.08-.87.26-1.8.56-2.78.27-.92.66-1.65,1.14-2.19.48-.53,1.18-.98,2.07-1.34.91-.37,2.04-.55,3.36-.55,1.96,0,3.57.15,4.8.44,1.06.23,1.18.23,1.27.23.58,0,1.02-.3,1.17-.75.2-.49.3-.91.3-1.29s-.18-1.08-1.39-1.38c-1.62-.36-3.62-.55-5.94-.55-4.12,0-7.03,1.13-8.66,3.37-1.6,2.2-2.37,5.67-2.37,10.62s.83,8.12,2.53,10.15c1.71,2.04,4.32,3.07,7.76,3.07,2.65,0,5.1-.37,7.26-1.09,1.08-.33,1.3-.92,1.3-1.37,0-.29-.06-.6-.18-.97-.31-.86-.95-.95-1.22-.95Z"/>
          <path class="cls-1" d="M727.74,209.24c-.22-.67-.48-1.14-.79-1.43-.35-.33-.82-.5-1.39-.5h-.38c-.62,0-1.13.16-1.51.47-.36.29-.64.76-.87,1.41l-7.9,21.98c-.23.7-.28.95-.28,1.12,0,.5.29.9.76,1.06.18.07.51.15,1.42.15.53,0,.83-.24,1-.44.16-.2.3-.47.42-.86l2.44-6.88h9.03l2.46,6.91c.15.38.29.64.44.83.17.2.47.44,1,.44.91,0,1.24-.08,1.4-.14.49-.16.78-.56.78-1.07,0-.17-.05-.42-.28-1.13l-7.72-21.91ZM728.65,221.31h-6.98c1.54-4.33,2.71-7.67,3.54-10.11l3.44,10.11Z"/>
          <path class="cls-1" d="M755.68,230.23c-.31-.86-.95-.95-1.22-.95-.14,0-.36.02-1.34.31-1.96.52-3.87.79-5.68.79-1.22,0-2.26-.19-3.11-.56-.84-.37-1.49-.83-1.95-1.38-.47-.56-.84-1.32-1.12-2.26-.29-.98-.48-1.95-.56-2.86-.08-.94-.12-2.08-.12-3.4s.04-2.43.12-3.33c.08-.87.26-1.8.56-2.78.27-.92.66-1.65,1.14-2.19.48-.53,1.18-.98,2.07-1.34.91-.37,2.04-.55,3.36-.55,1.96,0,3.57.15,4.8.44,1.06.23,1.18.23,1.27.23.58,0,1.02-.3,1.17-.75.2-.49.3-.91.3-1.29s-.18-1.08-1.39-1.38c-1.62-.36-3.62-.55-5.94-.55-4.12,0-7.03,1.13-8.66,3.37-1.6,2.2-2.37,5.67-2.37,10.62s.83,8.12,2.53,10.15c1.71,2.04,4.32,3.07,7.76,3.07,2.65,0,5.1-.37,7.26-1.09,1.08-.33,1.3-.92,1.3-1.37,0-.29-.06-.6-.18-.97Z"/>
        </g>
        <g>
          <path class="cls-1" d="M761.07,206.31h-.85c-.83.45-1.36,1-1.22,1.85v23.75c-.14.85.38,1.4,1.19,1.4h.85c.81,0,1.33-.55.97-1.4v-23.75c.36-.85-.15-1.4-.93-1.85Z"/>
          <path class="cls-1" d="M775,206.17c.35.12.72.18,1.1.18.5,0,1.01-.19,1.53-.55l5.23-3.69c.62-.39.71-.91.71-1.18,0-.56-.35-.98-.99-1.14-.57-.1-1.04-.15-1.46-.15-.49,0-1,.21-1.56.64l-4.7,3.72c-.42.29-.65.71-.65,1.17s.3.84.79,1.01Z"/>
          <path class="cls-1" d="M787.81,214.25c-.28-1.57-.68-2.87-1.19-3.86-.54-1.05-1.29-1.88-2.24-2.48-.91-.57-1.91-.97-2.95-1.17-1.01-.2-2.25-.3-3.7-.3-1.64,0-3.07.19-4.26.56-1.22.38-2.36,1.06-3.39,2.03-1.04.98-1.84,2.41-2.36,4.25-.51,1.78-.77,4.01-.77,6.63s.2,4.81.6,6.56c.41,1.81,1.09,3.26,2,4.32.93,1.07,2.04,1.82,3.32,2.25,1.23.41,2.77.62,4.58.62s3.44-.21,4.7-.63c1.31-.44,2.46-1.2,3.4-2.26.94-1.06,1.64-2.51,2.06-4.33.41-1.75.62-3.96.62-6.56,0-2.19-.14-4.09-.42-5.63ZM777.51,230.37c-1.29,0-2.34-.13-3.14-.39-.75-.24-1.44-.71-2.04-1.39-.61-.68-1.07-1.72-1.36-3.09-.31-1.44-.46-3.33-.46-5.63,0-2.15.16-3.94.48-5.31.3-1.31.77-2.32,1.39-3.01.62-.68,1.33-1.16,2.1-1.41.82-.27,1.87-.41,3.14-.41,1.41,0,2.55.12,3.37.36.77.22,1.42.66,1.99,1.34.58.68.99,1.68,1.24,2.98.26,1.37.39,3.22.39,5.5s-.16,4.22-.48,5.67c-.3,1.37-.78,2.4-1.43,3.07-.66.68-1.36,1.13-2.1,1.35-.79.24-1.83.36-3.1.36Z"/>
        </g>
        <path class="cls-1" d="M810.87,206.31h-.78c-.85.49-1.4,1.05-1.4,1.92,0,9.16.01,15.55.04,19.08-2.19-4.04-5.77-10.4-10.68-18.98-.32-.54-.62-.92-.89-1.15-.34-.28-.8-.42-1.36.12h-.53c-.7-.55-1.24-.34-1.6.08-.34.39-.67,1.72-.67,1.72v22.8s.69,1.4,1.49,1.4h.78c.83,0,1.36-.55,1.36-1.4,0-8.25-.02-14.7-.05-19.25,2.01,3.64,5.64,10.06,10.83,19.15.33.55.61.92.89,1.15.34.28.8.43,1.36,1.36h.56c1.21-.93,1.77-3,1.77-3v-23.11s-.35-1.4-1.13-1.89Z"/>
      </g>
      <g>
        <path class="cls-1" d="M360,106.31v42.24c0,8.14,3.82,12.22,11.45,12.22s11.55-4.07,11.55-12.22v-24.24h26v24.24c0,25.23-12.52,37.87-37.55,37.93-24.97,0-37.45-12.64-37.45-37.93V38.35c0-25.22,12.48-37.84,37.45-37.84s37.55,12.61,37.55,37.84v67.96h-49ZM360,80.31h23v-41.89c0-8.02-3.82-12.05-11.45-12.11h-.19c-7.58,0-11.36,4.04-11.36,12.11v41.89Z"/>
        <path class="cls-1" d="M423,38.38c0-25.34,12.48-38.01,37.45-38.01s37.55,12.67,37.55,38.01v23.93h-26v-23.94c0-7.98-3.77-12-11.3-12.06h-.42c-7.52,0-11.28,4.07-11.28,12.21v16.34c0,8.02,8.17,17.84,24.5,29.46,16.33,11.57,24.5,25.43,24.5,41.58v22.64c0,25.28-12.49,37.91-37.45,37.91-25.03-.06-37.55-12.7-37.55-37.91v-24.23h26v24.23c0,8.14,3.85,12.21,11.55,12.21s11.45-4.07,11.45-12.21v-20.41c0-8.75-8.17-18.98-24.5-30.7-16.33-11.65-24.5-25.82-24.5-42.53v-16.53Z"/>
        <path class="cls-1" d="M586,148.54c0,25.21-12.35,37.85-37.05,37.91-24.64,0-36.95-12.64-36.95-37.91V38.39c0-25.21,12.32-37.82,36.95-37.82s37.05,12.61,37.05,37.82v23.92h-26v-23.81c0-8.07-3.65-12.13-10.96-12.19h-.18c-7.25,0-10.87,4.07-10.87,12.19v110.01c0,8.13,3.65,12.19,10.96,12.19s11.04-4.06,11.04-12.19v-24.2h26v24.23Z"/>
        <path class="cls-1" d="M675,148.71c0,25.34-12.52,38.04-37.55,38.1-24.97,0-37.45-12.7-37.45-38.1V38.01c0-25.34,12.48-38.01,37.45-38.01s37.55,12.67,37.55,38.01v110.7ZM649,38.52c0-8.08-3.82-12.15-11.46-12.21h-.19c-7.58,0-11.36,4.07-11.36,12.21v110.15c0,8.14,3.82,12.21,11.45,12.21s11.55-4.07,11.55-12.21V38.52Z"/>
        <path class="cls-1" d="M739,36.66c-.56-6.84-4.36-10.29-11.41-10.35h-.19c-7.61,0-11.41,4.06-11.41,12.18v144.82h-26V38.19c0-25.21,12.4-37.82,37.21-37.82,10.14,0,18.24,2.11,24.29,6.33,5.99-4.22,14.05-6.33,24.2-6.33,24.87,0,37.3,12.61,37.3,37.82v145.12h-26V38.49c0-8.06-3.83-12.12-11.5-12.18h-.19c-6.98,0-10.75,3.45-11.31,10.35v146.65h-25V36.66Z"/>
      </g>
      <path class="cls-1" d="M157.36,221.92c-57.55,0-104.36-46.82-104.36-104.36S99.82,13.2,157.36,13.2s104.36,46.82,104.36,104.36-46.82,104.36-104.36,104.36ZM157.36,17.72c-55.05,0-99.84,44.79-99.84,99.84s44.79,99.84,99.84,99.84,99.84-44.79,99.84-99.84S212.42,17.72,157.36,17.72Z"/>
      <path class="cls-1" d="M158,229.31h-.65c-14.63-.28-28.87-3.08-42.31-8.59l.93-2.26c13.14,5.4,27.07,8.13,41.4,8.85h.64v2ZM200.32,220.45l-.94-2.25c13.24-5.53,25.1-13.52,35.27-23.74l1.73,1.72c-10.4,10.45-22.53,18.61-36.06,24.27ZM78.83,196.66c-10.46-10.38-18.63-22.51-24.31-36.04l2.25-.94c5.55,13.23,13.55,25.09,23.78,35.25l-1.72,1.73ZM260.64,159.99l-2.26-.93c5.42-13.17,8.17-27.13,8.17-41.5l2.44-.23v.23c0,14.69-2.81,28.96-8.36,42.43ZM48,118.31h-2v-.73c-.1-14.79,2.74-29.13,8.34-42.66l2.26.94c-5.48,13.23-8.26,27.26-8.6,41.7v.75ZM258.04,75.65c-5.52-13.24-13.49-25.12-23.7-35.3l1.72-1.73c10.44,10.41,18.59,22.55,24.23,36.09l-2.25.94ZM80.23,40.51l-1.73-1.73c10.42-10.43,22.57-18.57,36.11-24.2l.94,2.26c-13.25,5.51-25.14,13.47-35.32,23.67ZM198.96,16.97c-13.2-5.45-27.19-8.22-41.6-8.22l-.11-2.44h.11c14.73,0,29.04,2.83,42.53,8.4l-.93,2.26Z"/>
      <path class="cls-1" d="M158,229.31h-.65c-14.63-.28-28.87-3.08-42.31-8.59l.93-2.26c13.14,5.4,27.07,8.13,41.4,8.85h.64v2ZM200.32,220.45l-.94-2.25c13.24-5.53,25.1-13.52,35.27-23.74l1.73,1.72c-10.4,10.45-22.53,18.61-36.06,24.27ZM78.83,196.66c-10.46-10.38-18.63-22.51-24.31-36.04l2.25-.94c5.55,13.23,13.55,25.09,23.78,35.25l-1.72,1.73ZM260.64,159.99l-2.26-.93c5.42-13.17,8.17-27.13,8.17-41.5l2.44-.23v.23c0,14.69-2.81,28.96-8.36,42.43ZM48,118.31h-2v-.73c-.1-14.79,2.74-29.13,8.34-42.66l2.26.94c-5.48,13.23-8.26,27.26-8.6,41.7v.75ZM258.04,75.65c-5.52-13.24-13.49-25.12-23.7-35.3l1.72-1.73c10.44,10.41,18.59,22.55,24.23,36.09l-2.25.94ZM80.23,40.51l-1.73-1.73c10.42-10.43,22.57-18.57,36.11-24.2l.94,2.26c-13.25,5.51-25.14,13.47-35.32,23.67ZM198.96,16.97c-13.2-5.45-27.19-8.22-41.6-8.22l-.11-2.44h.11c14.73,0,29.04,2.83,42.53,8.4l-.93,2.26Z"/>
      <path class="cls-1" d="M157.65,235.31h-.65s0-2,0-2h.64c14.84,0,29.4-3.13,43.28-9.3l.27-.12.69,1.85-.27.12c-14.1,6.27-28.89,9.45-43.96,9.45ZM111.97,225.62c-14.29-6-27.04-14.6-37.9-25.56l1.29-1.28c10.69,10.79,23.25,19.25,37.31,25.16l-.71,1.68ZM239.81,200.93l-1.28-1.29c10.79-10.68,19.27-23.23,25.19-37.29l1.68.71c-6.02,14.28-14.62,27.03-25.59,37.88ZM49.61,161.58l-.16-.36c-6.26-14.1-9.44-28.89-9.44-43.97v-.94s2,.01,2,.01v.93c0,14.84,3.12,29.4,9.29,43.28l.16.35-1.84.7ZM275,118.31l-2-.02v-.74c0-14.84-3.13-29.4-9.3-43.28l.85-.52.93-.34v.03c6.35,14.24,9.53,29.03,9.53,44.11v.75ZM51.09,72.6l-1.68-.71c6.04-14.27,14.67-27,25.65-37.84l1.28,1.29c-10.81,10.66-19.31,23.2-25.25,37.25ZM239.51,36.47c-10.67-10.8-23.21-19.29-37.27-25.22l.71-1.68c14.28,6.03,27.02,14.65,37.86,25.62l-1.29,1.28ZM113.87,11.6l-.43-.88-.29-.95C127.29,3.49,142.08.31,157.15.31h.85s-.01,2-.01,2h-.84c-14.84,0-29.4,3.13-43.28,9.3Z"/>
      <path class="cls-1" d="M157.36,21.97c-52.8,0-95.59,42.8-95.59,95.59s42.8,95.59,95.59,95.59,95.59-42.8,95.59-95.59S210.16,21.97,157.36,21.97ZM157.36,187.25c-38.49,0-69.69-31.2-69.69-69.69s31.2-69.69,69.69-69.69,69.69,31.2,69.69,69.69-31.2,69.69-69.69,69.69Z"/>
      <g>
        <circle class="cls-2" cx="173.5" cy="102.81" r="9.5"/>
        <circle class="cls-2" cx="197" cy="86.31" r="15"/>
      </g>
      <path class="cls-3" d="M272.67,87.39c8.79-.29,17.63-.14,26.51,1.47,4.44.84,8.92,1.97,13.25,4.93.53.43,1.07.81,1.57,1.31.49.55,1.01,1.04,1.44,1.69.85,1.28,1.59,2.88,1.71,4.59.34,3.49-1.09,6.4-2.53,8.63-3.09,4.34-6.86,7.29-10.64,10.04-3.81,2.7-7.74,5.04-11.72,7.25-7.98,4.34-16.23,7.92-24.53,11.25-16.59,6.72-33.65,11.78-50.76,16.47-17.16,4.53-34.5,8.13-51.9,11.36-34.86,6.06-70.18,9.75-105.77,8.85-8.89-.31-17.82-.85-26.74-2.2-4.46-.71-8.92-1.56-13.37-2.77-4.44-1.26-8.93-2.72-13.26-5.64-2.08-1.53-4.37-3.52-5.47-6.79-.51-1.6-.65-3.41-.27-4.95.08-.39.16-.79.27-1.16l.42-1.03c.27-.71.62-1.31.99-1.88,1.48-2.29,3.24-4.05,5.09-5.52,1.82-1.53,3.77-2.77,5.72-3.95,7.85-4.62,16.14-7.79,24.53-10.53-7.77,4.22-15.55,8.55-22.38,13.89-1.68,1.36-3.3,2.76-4.75,4.25-1.49,1.46-2.72,3.11-3.5,4.69-.78,1.63-.86,2.98-.34,3.95.47,1.03,1.75,2.1,3.33,2.96,3.23,1.74,7.29,2.82,11.37,3.55,4.11.73,8.34,1.15,12.59,1.44,8.52.51,17.14.64,25.77.33,17.26-.69,34.58-1.99,51.82-4.18,17.25-2.06,34.45-4.65,51.59-7.65,17.16-2.9,34.22-6.4,51.15-10.38,16.96-3.84,33.73-8.51,50.24-13.78,8.25-2.66,16.32-5.77,24.21-9.15,3.91-1.74,7.76-3.6,11.38-5.72,3.6-2.1,7.04-4.56,9.46-7.31,2.26-2.95,2.75-4.84-.06-7.49-2.76-2.44-6.84-4.11-10.86-5.46-8.18-2.65-16.9-4.06-25.59-5.36Z"/>
    </g>
  </g>
</svg>